<?xml version="1.0" standalone="no"?>
<!DOCTYPE svg PUBLIC "-//W3C//DTD SVG 1.1//EN" "http://www.w3.org/Graphics/SVG/1.1/DTD/svg11.dtd" >
<svg xmlns="http://www.w3.org/2000/svg">
<metadata>Generated by IcoMoon</metadata>
<defs>
<font id="fintellix-icons" horiz-adv-x="1024">
<font-face units-per-em="1024" ascent="819.2" descent="-204.8" />
<missing-glyph horiz-adv-x="1024" />
<glyph unicode="&#x20;" horiz-adv-x="0" d="" />
<glyph unicode="&#xe900;" glyph-name="pw-reset" d="M151.373 128h89.579c61.625-149.506 231.279-223.138 383.101-164.858 154.153 59.174 230.971 231.709 171.797 385.862s-231.709 230.971-385.862 171.797l45.871-119.498-222.299 99.304 99.976 219.358 45.871-119.498c197.969 75.993 420.115-22.913 496.108-220.882s-22.913-420.115-220.882-496.108c-197.969-75.993-420.115 22.913-496.108 220.882-3.284 8.556-5.629 16.436-7.152 23.642zM597.333 213.334l-32.656-36.171 2.486 48.668-48.668-2.486 36.171 32.656-36.171 32.656 48.668-2.486-2.486 48.668 32.656-36.171 32.656 36.171-2.486-48.668 48.668 2.486-36.171-32.656 36.171-32.656-48.668 2.486 2.486-48.668zM426.667 213.334l-32.656-36.171 2.486 48.668-48.668-2.486 36.171 32.656-36.171 32.656 48.668-2.486-2.486 48.668 32.656-36.171 32.656 36.171-2.486-48.668 48.668 2.486-36.171-32.656 36.171-32.656-48.668 2.486 2.486-48.668zM256 213.334l-32.656-36.171 2.486 48.668-48.668-2.486 36.171 32.656-36.171 32.656 48.668-2.486-2.486 48.668 32.656-36.171 32.656 36.171-2.486-48.668 48.668 2.486-36.171-32.656 36.171-32.656-48.668 2.486 2.486-48.668z" />
<glyph unicode="&#xe901;" glyph-name="more-alt" d="M495.237 533.335c64.533 0 117.333 52.8 117.333 117.333s-52.8 117.333-117.333 117.333c-64.533 0-117.333-52.8-117.333-117.333s52.8-117.333 117.333-117.333zM495.237 416c-64.533 0-117.333-52.8-117.333-117.333s52.8-117.333 117.333-117.333c64.533 0 117.333 52.8 117.333 117.333s-52.8 117.333-117.333 117.333zM495.237 63.999c-64.533 0-117.333-52.8-117.333-117.333s52.8-117.333 117.333-117.333c64.533 0 117.333 52.8 117.333 117.333s-52.8 117.333-117.333 117.333z" />
<glyph unicode="&#xe902;" glyph-name="inbox-alt" d="M938.669 725.336h-853.332v-853.332h853.332v853.332zM843.85 156.443h-189.63c0-78.695-64-142.224-142.224-142.224s-142.224 63.527-142.224 142.224h-190.105v474.073h664.177v-474.073zM701.63 393.48h-94.813v142.224h-189.63v-142.224h-94.813l189.63-189.63 189.63 189.63z" />
<glyph unicode="&#xe903;" glyph-name="clock-alt" d="M511.575 725.332c-235.52 0-426.24-191.145-426.24-426.665s190.72-426.665 426.24-426.665c235.945 0 427.095 191.145 427.095 426.665s-191.145 426.665-427.095 426.665zM512-42.668c-188.585 0-341.335 152.745-341.335 341.335s152.745 341.335 341.335 341.335c188.585 0 341.335-152.745 341.335-341.335s-152.745-341.335-341.335-341.335zM533.335 512.002h-64v-256l224-134.4 32 52.48-192 113.92v224z" />
<glyph unicode="&#xe904;" glyph-name="add-comment" d="M934.165 736.084c-20.181 20.651-47.402 31.915-76.032 31.915h-692.267c-59.605 0-107.946-48.341-107.946-107.946v-830.72l203.691 203.691h596.524c59.605 0 107.946 48.341 107.946 107.946v519.084c0 28.629-11.264 55.85-31.915 76.032zM922.908 140.969c0-35.669-29.099-64.768-64.768-64.768h-614.363l-142.208-142.208v726.059c0 35.669 29.099 64.768 64.768 64.768h691.797c35.669 0 64.768-29.099 64.768-64.768v-519.084zM636.138 428.201v0 0zM700.436 518.781l-50.688 48.341c-8.448 7.979-22.059 7.979-30.507 0l-42.24-40.832 81.194-77.909 42.24 40.832c8.448 8.448 8.448 21.589 0 29.568zM339.052 298.196v-77.44h81.194l215.892 207.444-80.725 77.909z" />
<glyph unicode="&#xe905;" glyph-name="all-comments-added" d="M887.466 768.001h-750.934c-51.626 0-93.398-42.24-93.398-93.866l-0.47-844.8 187.734 187.734h657.066c51.626 0 93.866 42.24 93.866 93.866v563.2c0 51.626-42.24 93.866-93.866 93.866v0zM371.2 345.601h-93.866v93.866h93.866v-93.866zM558.934 345.601h-93.866v93.866h93.866v-93.866zM746.666 345.601h-93.866v93.866h93.866v-93.866z" />
<glyph unicode="&#xe906;" glyph-name="edit-comment" d="M887.466 768.001h-750.934c-51.626 0-93.398-42.24-93.398-93.866l-0.47-844.8 187.734 187.734h657.066c51.626 0 93.866 42.24 93.866 93.866v563.2c0 51.626-42.24 93.866-93.866 93.866v0zM371.2 157.867h-93.866v93.866h93.866v-93.866zM558.934 157.867h-93.866v93.866h93.866v-93.866zM746.666 157.867h-93.866v93.866h93.866v-93.866zM702.311 511.222l-172.541-165.623h-64.703v62.109l172.541 165.623 64.703-62.109zM753.384 560.247l-33.819-32.461-64.703 62.109 33.819 32.461c6.729 6.458 17.599 6.458 24.328 0l40.375-38.755c6.729-6.458 6.729-16.893 0-23.353z" />
<glyph unicode="&#xe907;" glyph-name="create-folder" d="M857.599 584.048h-345.601l-86.401 86.401h-259.2c-46.083 0-86.401-40.32-86.401-86.401v-518.399c0-46.083 40.32-86.401 86.401-86.401h691.198c46.083 0 86.401 40.32 86.401 86.401v431.997c0 46.083-40.32 86.401-86.401 86.401v0zM811.519 238.447h-126.721v-126.721h-86.401v126.721h-126.721v86.401h126.721v126.721h86.401v-126.721h126.721v-86.401z" />
<glyph unicode="&#xe908;" glyph-name="file-download" d="M597.335 725.332h-341.335c-48 0-85.335-37.335-85.335-85.335v-682.665c0-48 37.335-85.335 85.335-85.335h512c48 0 85.335 37.335 85.335 85.335v512l-256 256zM512-15.998l-133.335 133.335h101.335v234.665h64v-234.665h101.335l-133.335-133.335zM554.665 426.667v234.665l234.665-234.665h-234.665z" />
<glyph unicode="&#xe909;" glyph-name="file-share" d="M810.666 74.667c39.821 0 74.666 34.845 74.666 74.666v373.334c0 39.821-34.845 74.666-74.666 74.666h-597.334c-39.821 0-74.666-34.845-74.666-74.666v-373.334c0-39.821 34.845-74.666 74.666-74.666h-149.334v-74.666h896v74.666h-149.334zM551.821 204.088v79.645c-104.534 0-174.221-29.866-224-99.555 19.911 99.555 79.645 199.111 224 219.021v79.645l149.334-139.379-149.334-139.379z" />
<glyph unicode="&#xe90a;" glyph-name="file-upload" d="M597.335 725.332h-341.335c-48 0-85.335-37.335-85.335-85.335v-682.665c0-48 37.335-85.335 85.335-85.335h512c48 0 85.335 37.335 85.335 85.335v512l-256 256zM549.335 213.332v-234.665h-64v234.665h-106.665l133.335 133.335 133.335-133.335h-96zM554.665 426.667v234.665l234.665-234.665h-234.665z" />
<glyph unicode="&#xe90b;" glyph-name="move-path" d="M697.13 465.284v111.078l254.554-254.554-254.554-254.554v111.078l148.104 148.104-148.104 138.847zM474.974 428.258v148.104l254.554-254.554-254.554-254.554v148.104c-185.13 0-310.093-60.168-402.658-185.13 37.026 175.873 148.104 361.003 402.658 398.029v0z" />
<glyph unicode="&#xe90c;" glyph-name="user-permission" d="M677.695 340.091c69.039 0 124.271 55.232 124.271 124.271s-55.232 124.271-124.271 124.271-124.271-55.232-124.271-124.271 55.232-124.271 124.271-124.271v0zM346.305 340.091c69.039 0 124.271 55.232 124.271 124.271s-55.232 124.271-124.271 124.271-124.271-55.232-124.271-124.271 55.232-124.271 124.271-124.271v0zM346.305 257.243c-101.258 0-294.568-50.629-294.568-147.284v-105.86h584.534v105.86c0 96.655-193.31 147.284-289.965 147.284v0zM677.695 257.243c-13.808 0-27.616 0-41.424 0 50.629-36.821 82.847-82.847 82.847-142.682v-105.86h253.145v105.86c0 92.052-193.31 142.682-294.568 142.682v0z" />
<glyph unicode="&#xe90d;" glyph-name="import-scenario" d="M469.333 512h85.333v-85.333h-85.333v85.333zM469.333 341.334h85.333v-85.333h-85.333v85.333zM823.467 494.934v187.733h-76.8v-187.733h-119.467l157.867-153.6 153.6 153.6zM640 341.334h85.333v-85.333h-85.333v85.333zM853.333 170.667h-384v-128c0-25.6-17.067-42.667-42.667-42.667s-42.667 17.067-42.667 42.667v512c0 17.067-4.267 29.867-8.533 42.667h221.867v85.333h-341.333c-72.533 0-128-55.467-128-128v-128h170.667v-384c0-72.533 55.467-128 128-128h341.333c72.533 0 128 55.467 128 128v128h-42.667zM298.667 512h-85.333v42.667c0 25.6 17.067 42.667 42.667 42.667s42.667-17.067 42.667-42.667v-42.667zM810.667 42.667c0-25.6-17.067-42.667-42.667-42.667h-221.867c4.267 12.8 8.533 25.6 8.533 42.667v42.667h256v-42.667z" />
<glyph unicode="&#xe90e;" glyph-name="new-scenario" d="M469.333 512h85.333v-85.333h-85.333v85.333zM469.333 341.334h85.333v-85.333h-85.333v85.333zM640 298.667h85.333v-42.667h-85.333v42.667zM810.667 170.667h-341.333v-128c0-25.6-17.067-42.667-42.667-42.667s-42.667 17.067-42.667 42.667v512c0 17.067-4.267 29.867-8.533 42.667h221.867v85.333h-341.333c-72.533 0-128-55.467-128-128v-128h170.667v-384c0-72.533 55.467-128 128-128h341.333c72.533 0 128 55.467 128 128v128h-85.333zM298.667 512h-85.333v42.667c0 25.6 17.067 42.667 42.667 42.667s42.667-17.067 42.667-42.667v-42.667zM810.667 42.667c0-25.6-17.067-42.667-42.667-42.667h-221.867c4.267 12.8 8.533 25.6 8.533 42.667v42.667h256v-42.667zM810.667 682.667h-85.333v-128h-128v-85.333h128v-128h85.333v128h128v85.333h-128z" />
<glyph unicode="&#xe90f;" glyph-name="view-model-analysis" d="M584.533 221.867c21.333-12.8 51.2-12.8 72.533 4.267 29.867 21.333 34.133 64 12.8 89.6-17.067 25.6-51.2 29.867-76.8 17.067l-128 128c0 0 0 0 0 4.267 0 0 0 0 0 0 4.267 8.533 4.267 17.067 4.267 25.6s0 17.067-4.267 21.333c0 0 0 0 0 0-8.533 17.067-17.067 29.867-34.133 34.133 0 0 0 0 0 0-8.533 8.533-17.067 8.533-25.6 8.533 0 0 0 0 0 0-8.533 0-17.067 0-21.333-4.267 0 0 0 0 0 0-17.067-8.533-29.867-21.333-38.4-34.133 0 0 0 0 0 0-4.267-8.533-4.267-17.067-4.267-25.6s0-17.067 4.267-21.333c0 0 0 0 0 0 8.533-17.067 17.067-29.867 34.133-34.133 0 0 0 0 0 0 8.533-8.533 17.067-8.533 25.6-8.533s17.067 0 21.333 4.267c0 0 0 0 0 0s0 0 4.267 0l128-128c-4.267-12.8-4.267-29.867 0-46.933l-123.733-93.867c-8.533 4.267-17.067 8.533-29.867 8.533-34.133 0-64-29.867-64-64s29.867-64 64-64 64 29.867 64 64c0 8.533 0 17.067-4.267 25.6l119.467 89.6zM755.2-0c0-28.277-22.923-51.2-51.2-51.2s-51.2 22.923-51.2 51.2c0 28.277 22.923 51.2 51.2 51.2s51.2-22.923 51.2-51.2zM704 128c-85.333 0-162.133-51.2-192-128 29.867-76.8 106.667-128 192-128s162.133 51.2 192 128c-29.867 76.8-106.667 128-192 128zM704-85.333c-46.933 0-85.333 38.4-85.333 85.333s38.4 85.333 85.333 85.333 85.333-38.4 85.333-85.333-38.4-85.333-85.333-85.333zM256 640h341.333v-119.467c0-29.867 21.333-51.2 51.2-51.2h119.467v-298.667h85.333v418.133l-136.533 136.533h-494.933c-29.867 0-51.2-21.333-51.2-51.2v-750.933c0-29.867 21.333-51.2 51.2-51.2h247.467v85.333h-213.333v682.667zM682.667 640l85.333-85.333h-85.333v85.333z" />
<glyph unicode="&#xe910;" glyph-name="view-scenario" d="M469.333 512h85.333v-85.333h-85.333v85.333zM469.333 341.334h85.333v-85.333h-85.333v85.333zM640 384h85.333v-128h-85.333v128zM810.667 170.667h-341.333v-128c0-25.6-17.067-42.667-42.667-42.667s-42.667 17.067-42.667 42.667v512c0 17.067-4.267 29.867-8.533 42.667h136.533v85.333h-256c-72.533 0-128-55.467-128-128v-128h170.667v-384c0-72.533 55.467-128 128-128h341.333c72.533 0 128 55.467 128 128v128h-85.333zM298.667 512h-85.333v42.667c0 25.6 17.067 42.667 42.667 42.667s42.667-17.067 42.667-42.667v-42.667zM810.667 42.667c0-25.6-17.067-42.667-42.667-42.667h-221.867c4.267 12.8 8.533 25.6 8.533 42.667v42.667h256v-42.667zM797.867 554.667c0-28.277-22.923-51.2-51.2-51.2s-51.2 22.923-51.2 51.2c0 28.277 22.923 51.2 51.2 51.2s51.2-22.923 51.2-51.2zM746.667 426.667c85.333 0 162.133 51.2 192 128-29.867 76.8-106.667 128-192 128s-162.133-51.2-192-128c29.867-76.8 106.667-128 192-128zM746.667 640c46.933 0 85.333-38.4 85.333-85.333s-38.4-85.333-85.333-85.333-85.333 38.4-85.333 85.333 38.4 85.333 85.333 85.333z" />
<glyph unicode="&#xe911;" glyph-name="vintage-parameter-editor" d="M846.933 682.667h-669.44c-27.307 0-49.493-22.187-49.493-49.493v-669.44c0-26.88 22.187-49.067 49.067-49.067h669.44c27.307 0 49.493 22.187 49.493 49.493v669.44c0 26.88-22.187 49.067-49.067 49.067zM213.333 256h72.96c7.253 0 14.507 3.413 18.347 9.813l115.627 180.053 29.44-45.653-15.787-24.747c0 0 0 0 0 0l-131.413-204.8h-89.173v85.333zM810.667-0h-597.333v128h99.413c12.373 0 17.067 6.827 20.48 11.52l141.653 221.013 115.2-179.627c8.533-11.947 20.907-10.667 21.333-10.667h92.587c11.947 0 21.333 9.387 21.333 21.333s-9.387 21.333-21.333 21.333h-83.627l-119.893 186.88 32.853 51.2 64.427-100.693c3.84-5.547 10.24-8.96 17.493-8.96h88.747c11.947 0 21.333 9.387 21.333 21.333s-9.387 21.333-21.333 21.333h-76.8l-75.947 118.187c0 0 0 0-0.427 0.427-0.427 0.853-1.28 1.28-2.133 2.133-1.28 1.28-2.56 2.987-4.267 3.84 0 0 0 0 0 0-0.427 0.427-0.853 0.427-1.28 0.427-2.133 1.28-3.84 2.133-6.4 2.56-0.853 0-1.707 0-2.56 0-1.707 0-3.84 0.427-5.547 0-0.853 0-1.707-0.853-2.987-1.28s-2.987-0.853-4.267-1.707c0 0 0-0.427-0.427-0.427-0.853-0.427-1.28-1.28-1.707-1.707-1.707-1.28-2.987-2.56-4.267-4.267 0 0 0 0 0 0l-40.107-62.72-31.147 49.067c-13.227 21.76-31.573 23.040-45.227 2.987l-123.307-192.853h-61.867v298.667h597.333v-597.333z" />
<glyph unicode="&#xe912;" glyph-name="view-graphs" d="M170.667 682.667c-23.467 0-42.667-19.2-42.667-42.667v-678.4c0-25.6 20.907-46.933 46.933-46.933h678.4c23.467 0 42.667 19.2 42.667 42.667s-19.2 42.667-42.667 42.667h-640v77.653l81.92 81.92 90.453-90.453 241.067 241.067c16.64 16.64 16.64 43.52 0 60.16-8.533 8.533-19.2 12.373-30.293 12.373s-21.76-4.267-30.293-12.373l-180.907-180.907-90.453 90.453-81.493-81.493v441.6c0 23.467-19.2 42.667-42.667 42.667v0zM746.667 605.867c-29.013 0-52.48-23.040-52.48-51.2s23.467-51.2 52.48-51.2 52.48 23.040 52.48 51.2-23.467 51.2-52.48 51.2v0zM746.667 682.667c-87.467 0-161.707-52.907-192-128 30.293-75.093 104.533-128 192-128s161.707 52.907 192 128c-30.293 75.093-104.533 128-192 128v0zM746.667 469.334c-48.213 0-87.467 38.4-87.467 85.333s39.253 85.333 87.467 85.333 87.467-38.4 87.467-85.333-39.253-85.333-87.467-85.333v0z" />
<glyph unicode="&#xe913;" glyph-name="precision-increase" d="M250.88-64.853c0-35.346-28.654-64-64-64s-64 28.654-64 64c0 35.346 28.654 64 64 64s64-28.654 64-64zM506.88-43.52c-32.427 0-57.173 8.533-75.093 26.027-52.053 51.2-51.2 176.213-50.347 276.907l0.427 38.4-0.427 38.4c-0.853 100.693-1.707 225.707 50.347 276.907 17.92 17.493 42.24 26.027 75.093 26.027s57.173-8.533 75.093-26.027c52.053-51.2 51.2-176.213 50.347-276.907l-0.427-38.827 0.427-38.827c0.427-28.587 0.427-58.88-0.427-89.173h87.893c0.853 30.293 0.427 60.587 0.427 90.027l-0.427 37.973 0.427 37.973c0.853 122.453 2.133 261.12-75.947 337.493-34.56 34.133-81.067 51.2-137.387 51.2s-102.827-17.067-137.387-51.2c-78.080-76.373-76.8-215.040-75.947-337.493l0.427-37.973-0.427-37.973c-0.853-122.453-2.133-261.12 75.947-337.493 34.56-34.133 81.067-51.2 137.387-51.2v85.76zM805.547 41.814h-85.333v85.333h-85.333v-85.333h-85.333v-85.333h85.333v-85.333h85.333v85.333h85.333z" />
<glyph unicode="&#xe914;" glyph-name="precision-decrease" d="M256-64c0-35.346-28.654-64-64-64s-64 28.654-64 64c0 35.346 28.654 64 64 64s64-28.654 64-64zM512-42.666c-32.427 0-57.173 8.533-75.093 26.027-52.053 51.2-51.2 176.213-50.347 276.907l0.427 38.4-0.427 38.4c-0.853 100.693-1.707 225.707 50.347 276.907 17.92 17.493 42.667 26.027 75.093 26.027s57.173-8.533 75.093-26.027c52.053-51.2 51.2-176.213 50.347-276.907l-0.427-38.4 0.427-38.827c0.427-28.587 0.427-101.547-0.427-131.84h87.893c0.853 30.293 0.427 103.253 0.427 132.693l-0.427 37.973 0.427 37.973c0.853 122.453 2.133 261.12-75.947 337.493-34.987 34.133-81.067 51.2-137.387 51.2s-102.4-17.067-137.387-51.2c-78.080-76.373-76.8-215.040-75.947-337.493l0.427-37.973-0.427-37.973c-0.853-122.453-2.133-261.12 75.947-337.493 34.987-34.133 81.067-51.2 137.387-51.2v85.333zM554.667-42.666v85.333h256v-85.333h-256z" />
<glyph unicode="&#xe915;" glyph-name="maturation-editor" d="M515.413 302.080h61.44l267.093 267.52-61.013 61.013-267.52-267.093zM891.307 616.534c6.4 6.4 6.4 16.64 0 23.040l-37.973 37.973c-6.4 6.4-16.64 6.4-23.040 0l-29.867-29.867 61.013-61.013 29.867 29.867zM810.667 383.147l-245.76-251.307-187.733 183.893-30.72 30.72c-16.64 16.213-43.093 16.213-59.307 0l-73.813-74.667v325.547h470.613v85.333h-506.88c-26.88 0-49.067-22.187-49.067-49.067v-669.867c0-26.88 22.187-49.067 49.067-49.067h669.867c27.307 0 49.067 22.187 49.067 49.067v504.747h-85.333v-85.333zM810.667-0h-597.333v150.613l103.68 104.533 188.16-184.32 32-31.573c15.787-15.787 41.387-15.36 57.173 0.427l216.32 221.44v-261.12z" />
<glyph unicode="&#xe916;" glyph-name="exogenous-events-editor" d="M298.667 341.334h170.667v-85.333h-170.667v85.333zM554.667 341.334h170.667v-85.333h-170.667v85.333zM554.667 170.667h170.667v-85.333h-170.667v85.333zM298.667 170.667h170.667v-85.333h-170.667v85.333zM846.933 682.667h-669.44c-27.307 0-49.493-22.187-49.493-49.493v-669.44c0-26.88 22.187-49.067 49.067-49.067h669.44c27.307 0 49.493 22.187 49.493 49.493v669.44c0 26.88-22.187 49.067-49.067 49.067zM810.667-0h-597.333v426.667h597.333v-426.667zM810.667 512h-597.333v85.333h597.333v-85.333z" />
<glyph unicode="&#xe917;" glyph-name="create-new-graph" d="M170.667 682.667c-23.467 0-42.667-19.2-42.667-42.667v-678.4c0-25.6 20.907-46.933 46.933-46.933h678.4c23.467 0 42.667 19.2 42.667 42.667s-19.2 42.667-42.667 42.667h-640v77.653l81.92 81.92 90.453-90.453 241.067 241.067c16.64 16.64 16.64 43.52 0 60.16-8.533 8.533-19.2 12.373-30.293 12.373s-21.76-4.267-30.293-12.373l-180.907-180.907-90.453 90.453-81.493-81.493v441.6c0 23.467-19.2 42.667-42.667 42.667v0zM810.667 682.667h-85.333v-128h-128v-85.333h128v-128h85.333v128h128v85.333h-128v128z" />
<glyph unicode="&#xf101;" glyph-name="3d-rotation" d="M350.328-38.001l48.332 46.668 135-135-23.332-1.668q-166.668 0-289.168 113.332t-135.832 278.332h53.332q10-100 66.668-180t145-121.668zM381.992 193.667q23.332 0 35 11.668t11.668 33.332q0 11.668-3.332 20t-10 13.332q-6.668 6.668-15.832 9.168t-22.5 2.5h-26.668v36.668h26.668q13.332 0 21.668 3.332t13.332 8.332q6.668 5 10 13.332t3.332 16.668q0 20-11.668 31.668-10 10-31.668 10-8.332 0-16.668-3.332-6.668-1.668-13.332-6.668-5-5-8.332-13.332-3.332-6.668-3.332-15h-46.668q0 16.668 6.668 30t18.332 23.332 28.332 16.668q15 5 35 5 18.332 0 36.668-5 16.668-5 26.668-15 11.668-10 18.332-25t6.668-33.332q0-8.332-3.332-16.668-1.668-8.332-6.668-16.668-6.668-8.332-13.332-15-8.332-6.668-18.332-11.668 11.668-5 21.668-11.668 8.332-6.668 13.332-15 5-6.668 8.332-18.332 3.332-8.332 3.332-20 0-18.332-8.332-33.332-6.668-15-19.168-25.832t-29.168-15.832-36.668-5q-18.332 0-35 5-15 5-28.332 15t-20 24.168-6.668 34.168h45q0-10 3.332-17.5t10-12.5q5-5 13.332-8.332t18.332-3.332zM686.16 404.499q17.5-17.5 27.5-42.5 8.332-26.668 8.332-56.668v-13.332q0-31.668-8.332-56.668-10-25-26.668-41.668-16.668-18.332-41.668-28.332-23.332-8.332-53.332-8.332h-81.668v283.332h83.332q30 0 52.5-9.168t40-26.668zM671.992 291.999v13.332q0 46.668-20 71.668-20 23.332-58.332 23.332h-33.332v-205h31.668q20 0 35 6.668t25 18.332q10 13.332 15 31.668t5 40zM510.328 725.335q166.668 0 289.168-113.332t135.832-276.668h-53.332q-10 98.332-67.5 178.332t-144.168 121.668l-48.332-46.668-135 135z" />
<glyph unicode="&#xf102;" glyph-name="airplane-mode-off" d="M577 426.667l340-214v-84l-134 42-334 334v156q0 28 18 46t45 18 46-18 19-46v-234zM149 586.667l54 54 672-672-54-54-244 244v-158l84-64v-64l-148 42-150-42v64l86 64v234l-342-106v84l256 160z" />
<glyph unicode="&#xf103;" glyph-name="airplane-mode-on" d="M917 128.667l-340 106v-234l84-64v-64l-148 42-150-42v64l86 64v234l-342-106v84l342 214v234q0 28 18 46t45 18 46-18 19-46v-234l340-214v-84z" />
<glyph unicode="&#xf104;" glyph-name="disc" d="M512 724.667q177 0 302-125t125-301-125-301-302-125-302 125-125 301 125 301 302 125zM511 106.667q80 0 136 56t56 136-56 136-136 56-136-56-56-136 56-136 136-56zM512 340.667q17 0 30-12t13-30-13-30-30-12-30 12-13 30 13 30 30 12z" />
<glyph unicode="&#xf105;" glyph-name="store-download" d="M876 586.667q20-22 20-54v-532q0-36-25-61t-61-25h-596q-36 0-61 25t-25 61v532q0 32 20 54l58 72q20 24 50 24h512q30 0 50-24zM512 64.667l234 234h-148v86h-172v-86h-148zM218 596.667h588l-40 44h-512z" />
<glyph unicode="&#xf106;" glyph-name="profile" d="M810 639.667q36 0 61-25t25-61v-596q0-36-25-61t-61-25h-596q-36 0-61 25t-25 61v596q0 36 25 61t61 25h178q14 38 47 62t73 24 73-24 47-62h178zM512 639.667q-18 0-30-13t-12-30 12-30 30-13 30 13 12 30-12 30-30 13zM512 469.667q-54 0-91-38t-37-91 37-90 91-37 91 37 37 90-37 91-91 38zM768-42.333v60q0 38-47 70t-105 47-104 15-104-15-105-47-47-70v-60h512z" />
<glyph unicode="&#xf107;" glyph-name="profile-warning" d="M810 639.667q36 0 61-25t25-61v-596q0-36-25-61t-61-25h-596q-36 0-61 25t-25 61v596q0 36 25 61t61 25h178q14 38 47 62t73 24 73-24 47-62h178zM554-0.333v86h-84v-86h84zM554 169.667v256h-84v-256h84zM512 553.667q18 0 30 13t12 30-12 30-30 13-30-13-12-30 12-30 30-13z" />
<glyph unicode="&#xf108;" glyph-name="profile-valid" d="M810 639.667q36 0 61-25t25-61v-596q0-36-25-61t-61-25h-596q-36 0-61 25t-25 61v596q0 36 25 61t61 25h178q14 38 47 62t73 24 73-24 47-62h178zM512 639.667q-18 0-30-13t-12-30 12-30 30-13 30 13 12 30-12 30-30 13zM426 41.667l342 342-60 60-282-280-110 110-60-60z" />
<glyph unicode="&#xf109;" glyph-name="tasks" d="M782.89 646.825q32.724 0 55.45-22.726t22.726-53.632v-621.774q0-30.906-22.726-53.632t-55.45-22.726h-541.78q-32.724 0-55.45 22.726t-22.726 53.632v621.774q0 30.906 22.726 53.632t55.45 22.726h161.806q12.726 34.543 42.724 56.36t66.358 21.816 66.358-21.816 42.724-56.36h161.806zM512 646.825q-16.362 0-27.27-10.908t-10.908-27.27 10.908-27.27 27.27-10.908 27.27 10.908 10.908 27.27-10.908 27.27-27.27 10.908zM782.89-51.309v621.774h-76.358v-116.356h-389.064v116.356h-76.358v-621.774h541.78z" />
<glyph unicode="&#xf10a;" glyph-name="profile-import" d="M682 682.667q36 0 61-25t25-61v-596q0-36-25-61t-61-25h-596q-36 0-61 25t-25 61v596q0 36 25 61t61 25h178q14 38 47 62t73 24 73-24 47-62h178zM384 682.667q-18 0-30-13t-12-30 12-30 30-13 30 13 12 30-12 30-30 13zM554 170.667v170h-170v128l-214-212 214-214v128h170z" />
<glyph unicode="&#xf10b;" glyph-name="profile-download" horiz-adv-x="768" d="M682 682.667q36 0 61-25t25-61v-596q0-36-25-61t-61-25h-596q-36 0-61 25t-25 61v596q0 36 25 61t61 25h178q14 38 47 62t73 24 73-24 47-62h178zM384 682.667q-18 0-30-13t-12-30 12-30 30-13 30 13 12 30-12 30-30 13zM384 42.667l214 214h-128v170h-172v-170h-128z" />
<glyph unicode="&#xf10c;" glyph-name="profile-details" horiz-adv-x="768" d="M682 640.667q36 0 61-25t25-61v-598q0-34-25-59t-61-25h-596q-36 0-61 25t-25 59v598q0 36 25 61t61 25h178q14 38 47 61t73 23 73-23 47-61h178zM384 640.667q-18 0-30-13t-12-30 12-30 30-13 30 13 12 30-12 30-30 13zM470 42.667v86h-300v-86h300zM598 212.667v86h-428v-86h428zM598 384.667v84h-428v-84h428z" />
<glyph unicode="&#xf10d;" glyph-name="attachment" horiz-adv-x="470" d="M406 554.667h64v-490q0-98-69-167t-166-69-166 69-69 167v532q0 72 50 122t121 50 121-50 50-122v-448q0-44-32-75t-76-31-75 31-31 75v406h64v-406q0-16 13-29t30-13 30 13 13 29v448q0 44-32 76t-76 32-75-32-31-76v-532q0-72 50-122t121-50 121 50 50 122v490z" />
<glyph unicode="&#xf10e;" glyph-name="attachment-horizontal" d="M234 64.667q-96 0-165 68t-69 166 69 166 165 68h448q72 0 122-50t50-120-50-120-122-50h-362q-44 0-75 31t-31 75 31 75 75 31h320v-64h-320q-18 0-30-12t-12-30 12-30 30-12h362q44 0 76 31t32 75-32 75-76 31h-448q-70 0-120-50t-50-120 50-120 120-50h406v-64h-406z" />
<glyph unicode="&#xf10f;" glyph-name="tone" horiz-adv-x="554" d="M256 682.667h298v-128h-170v-470h-2q-8-72-62-121t-128-49q-80 0-136 56t-56 136 56 136 136 56q30 0 64-12v396z" />
<glyph unicode="&#xf110;" glyph-name="verified" horiz-adv-x="768" d="M682 768.667q36 0 61-25t25-61v-552q0-46-38-70l-346-232-346 232q-38 24-38 70v552q0 36 25 61t61 25h596zM298 128.667l384 384-60 60-324-324-152 152-60-60z" />
<glyph unicode="&#xf111;" glyph-name="wallet" horiz-adv-x="810" d="M768 42.667v-42q0-36-25-61t-61-25h-596q-36 0-61 25t-25 61v596q0 36 25 61t61 25h596q36 0 61-25t25-61v-42h-384q-36 0-61-25t-25-61v-340q0-36 25-61t61-25h384zM384 128.667v340h426v-340h-426zM555 234.667q27 0 45 19t18 45-18 45-45 19-46-19-19-45 19-45 46-19z" />
<glyph unicode="&#xf112;" glyph-name="bank" horiz-adv-x="810" d="M86 384.667h128v-300h-128v300zM342 384.667h128v-300h-128v300zM0-127.333v128h810v-128h-810zM598 384.667h128v-300h-128v300zM406 768.667l404-214v-86h-810v86z" />
<glyph unicode="&#xf113;" glyph-name="battery-warning" horiz-adv-x="426" d="M370 640.667q24 0 40-17t16-41v-654q0-24-16-40t-40-16h-314q-22 0-39 16t-17 40v654q0 24 17 41t39 17h72v84h170v-84h72zM256 42.667v86h-86v-86h86zM256 212.667v214h-86v-214h86z" />
<glyph unicode="&#xf114;" glyph-name="battery-charging" horiz-adv-x="426" d="M370 640.667q24 0 40-17t16-41v-654q0-24-16-40t-40-16h-314q-22 0-39 16t-17 40v654q0 24 17 41t39 17h72v84h170v-84h72zM170-43.333l172 320h-86v236l-170-320h84v-236z" />
<glyph unicode="&#xf115;" glyph-name="battery-indeterminate" horiz-adv-x="426" d="M370 640.667q24 0 40-17t16-41v-654q0-24-16-40t-40-16h-314q-22 0-39 16t-17 40v654q0 24 17 41t39 17h72v84h170v-84h72zM254 44.667v82h-82v-82h82zM312 268.667q30 30 30 72 0 54-38 91t-91 37-90-37-37-91h64q0 28 18 46t45 18 46-18 19-45-20-45l-40-40q-38-42-38-86h68q0 32 34 68z" />
<glyph unicode="&#xf116;" glyph-name="battery" horiz-adv-x="426" d="M370 640.667q24 0 40-17t16-41v-654q0-24-16-40t-40-16h-314q-22 0-39 16t-17 40v654q0 24 17 41t39 17h72v84h170v-84h72z" />
<glyph unicode="&#xf117;" glyph-name="cycle" d="M661 576.667q-35 0-60 25t-25 60 25 60 60 25 60-25 25-60-25-60-60-25zM213 298.667q89 0 151-62t62-151-62-151-151-62-151 62-62 151 62 151 151 62zM213-63.333q61 0 105 44t44 105-44 105-105 44-105-44-44-105 44-105 105-44zM460 362.667l94-98v-264h-84v212l-138 120q-24 20-24 60 0 34 24 60l120 120q20 24 60 24 36 0 68-24l82-82q64-64 152-64v-86q-128 0-216 90l-34 34zM811 298.667q89 0 151-62t62-151-62-151-151-62-151 62-62 151 62 151 151 62zM811-63.333q61 0 105 44t44 105-44 105-105 44-105-44-44-105 44-105 105-44z" />
<glyph unicode="&#xf118;" glyph-name="cancel" d="M427 724.667q177 0 302-125t125-301-125-301-302-125-302 125-125 301 125 301 302 125zM426-43.333q116 0 210 72l-478 480q-72-94-72-210 0-142 100-242t240-100zM696 88.667q72 94 72 210 0 142-100 242t-242 100q-116 0-208-72z" />
<glyph unicode="&#xf119;" glyph-name="cancel-alternate" d="M427 724.667q177 0 302-125t125-301-125-301-302-125-302 125-125 301 125 301 302 125zM86 298.667q0-118 72-210l478 480q-92 72-210 72-140 0-240-100t-100-242zM426-43.333q142 0 242 100t100 242q0 118-72 210l-478-480q92-72 208-72z" />
<glyph unicode="&#xf11a;" glyph-name="cruise" d="M768-85.333h86v-86h-86q-88 0-170 42-82-40-172-40t-170 40q-84-42-170-42h-86v86h86q90 0 170 56 78-54 171-54t171 54q80-56 170-56zM84 0.667l-82 284q-6 16 2 34 8 16 26 20l56 18v198q0 36 25 61t59 25h128v128h256v-128h128q36 0 61-25t25-61v-198l54-18q18-4 26-20t2-34l-80-284h-2q-96 0-170 84-76-84-172-84t-170 84q-74-84-170-84h-2zM170 554.667v-170l256 84 256-84v170h-512z" />
<glyph unicode="&#xf11b;" glyph-name="bookmark-picture" horiz-adv-x="682" d="M598 724.667q34 0 59-25t25-59v-684q0-34-25-59t-59-25h-512q-36 0-61 25t-25 59v684q0 34 25 59t61 25h512zM86 640.667v-342l106 64 106-64v342h-212zM86 0.667h512l-166 218-128-164-90 110z" />
<glyph unicode="&#xf11c;" glyph-name="bookmark-document" horiz-adv-x="682" d="M598 724.667q34 0 59-25t25-59v-684q0-34-25-59t-59-25h-512q-36 0-61 25t-25 59v684q0 34 25 59t61 25h512zM86 640.667v-342l106 64 106-64v342h-212z" />
<glyph unicode="&#xf11d;" glyph-name="bookmark-outline" horiz-adv-x="598" d="M512 682.667q36 0 61-25t25-61v-682l-300 128-298-128v682q0 36 25 61t61 25h426zM512 42.667v554h-426v-554l212 94z" />
<glyph unicode="&#xf11e;" glyph-name="bookmark-solid" horiz-adv-x="598" d="M512 682.667q36 0 61-25t25-61v-682l-300 128-298-128v682q0 36 25 61t61 25h426z" />
<glyph unicode="&#xf11f;" glyph-name="paint-brush" horiz-adv-x="810" d="M213 212.667q53 0 91-37t38-91q0-70-50-120t-122-50q-48 0-94 23t-76 63q30 0 58 23t28 61q0 54 37 91t90 37zM798 612.667q12-12 12-30t-12-30l-382-382-118 118 382 382q14 12 31 12t31-12z" />
<glyph unicode="&#xf120;" glyph-name="bug" horiz-adv-x="682" d="M682 468.667v-84h-88q4-26 4-44v-42h84v-86h-84v-42q0-18-4-42h88v-86h-120q-34-58-92-93t-128-35-129 35-93 93h-120v86h90q-4 24-4 42v42h-86v86h86v42q0 18 4 44h-90v84h120q30 52 78 84l-70 70 60 60 94-92q28 6 59 6t61-6l92 92 60-60-68-70q48-32 76-84h120zM426 128.667v84h-170v-84h170zM426 298.667v86h-170v-86h170z" />
<glyph unicode="&#xf121;" glyph-name="bus" horiz-adv-x="682" d="M0 128.667v426q0 54 25 89t76 52 106 23 134 6 134-6 106-23 76-52 25-89v-426q0-56-42-96v-76q0-16-13-29t-29-13h-44q-16 0-29 13t-13 29v44h-342v-44q0-16-12-29t-30-13h-42q-18 0-31 13t-13 29v76q-42 40-42 96zM149 84.667q27 0 46 19t19 46-19 45-46 18-45-18-18-45 18-46 45-19zM533 84.667q27 0 46 19t19 46-19 45-46 18-45-18-18-45 18-46 45-19zM598 340.667v214h-512v-214h512z" />
<glyph unicode="&#xf122;" glyph-name="cake" horiz-adv-x="768" d="M384 554.667q-36 0-61 25t-25 61q0 24 14 44l72 126 72-126q14-20 14-44 0-36-25-61t-61-25zM580 128.667q44-44 104-44 46 0 84 26v-196q0-18-13-30t-29-12h-684q-16 0-29 12t-13 30v196q38-26 84-26 60 0 104 44l46 46 46-46q42-42 104-42t104 42l46 46zM640 426.667q54 0 91-37t37-91v-66q0-34-25-59t-59-25-58 24l-92 92-92-92q-22-22-58-22t-60 22l-90 92-92-92q-24-24-58-24t-59 25-25 59v66q0 54 37 91t91 37h214v86h84v-86h214z" />
<glyph unicode="&#xf123;" glyph-name="car-taxi" horiz-adv-x="768" d="M680 554.667l88-256v-342q0-16-13-29t-29-13h-44q-16 0-29 13t-13 29v44h-512v-44q0-16-13-29t-29-13h-44q-16 0-29 13t-13 29v342l88 256q16 42 62 42h106v86h256v-86h106q46 0 62-42zM149 128.667q27 0 46 18t19 45-19 46-46 19-45-19-18-46 18-45 45-18zM619 128.667q27 0 45 18t18 45-18 46-45 19-46-19-19-46 19-45 46-18zM86 340.667h596l-64 192h-468z" />
<glyph unicode="&#xf124;" glyph-name="car-wash" horiz-adv-x="768" d="M597 596.667q-27 0-45 19t-18 45q0 20 16 49t32 47l16 20q64-72 64-116 0-26-19-45t-46-19zM384 596.667q-26 0-45 19t-19 45q0 20 16 49t32 47l16 20q64-72 64-116 0-26-19-45t-45-19zM171 596.667q-27 0-46 19t-19 45q0 20 16 49t32 47l16 20q64-72 64-116 0-26-18-45t-45-19zM680 468.667l88-256v-340q0-18-13-31t-29-13h-44q-16 0-29 13t-13 31v42h-512v-42q0-18-13-31t-29-13h-44q-16 0-29 13t-13 31v340l88 256q16 44 62 44h468q46 0 62-44zM149 42.667q27 0 46 19t19 45-19 45-46 19-45-19-18-45 18-45 45-19zM619 42.667q27 0 45 19t18 45-18 45-45 19-46-19-19-45 19-45 46-19zM86 256.667h596l-64 192h-468z" />
<glyph unicode="&#xf125;" glyph-name="car" horiz-adv-x="768" d="M680 554.667l88-256v-342q0-16-13-29t-29-13h-44q-16 0-29 13t-13 29v44h-512v-44q0-16-13-29t-29-13h-44q-16 0-29 13t-13 29v342l88 256q16 42 62 42h468q46 0 62-42zM149 128.667q27 0 46 18t19 45-19 46-46 19-45-19-18-46 18-45 45-18zM619 128.667q27 0 45 18t18 45-18 46-45 19-46-19-19-46 19-45 46-18zM86 340.667h596l-64 192h-468z" />
<glyph unicode="&#xf126;" glyph-name="gift" d="M768 554.667q36 0 61-25t25-61v-468q0-36-25-61t-61-25h-682q-36 0-61 25t-25 61v468q0 36 25 61t61 25h92q-8 22-8 42 0 54 38 91t90 37q68 0 108-56l20-30 22 30q38 56 106 56 54 0 91-37t37-91q0-20-8-42h94zM555 640.667q-17 0-30-13t-13-30 13-30 30-13 30 13 13 30-13 30-30 13zM299 640.667q-17 0-30-13t-13-30 13-30 30-13 30 13 13 30-13 30-30 13zM768 0.667v84h-682v-84h682zM768 212.667v256h-216l88-120-70-50-100 138-44 58-42-58-102-138-68 50 88 120h-216v-256h682z" />
<glyph unicode="&#xf127;" glyph-name="receipt" d="M768 724.667q36 0 61-25t25-59v-470q0-36-25-61t-61-25h-170v-212l-172 84-170-84v212h-170q-36 0-61 25t-25 61v470q0 34 25 59t61 25h682zM768 170.667v86h-682v-86h682zM768 384.667v256h-682v-256h682z" />
<glyph unicode="&#xf128;" glyph-name="purchase" d="M768 554.667q36 0 61-25t25-61v-468q0-36-25-61t-61-25h-682q-36 0-61 25t-25 61v468q0 36 25 61t61 25h128v86q0 34 25 59t59 25h256q36 0 61-25t25-59v-86h128zM298 640.667v-86h256v86h-256zM768 0.667v84h-682v-84h682zM768 212.667v256h-128v-84h-86v84h-256v-84h-84v84h-128v-256h682z" />
<glyph unicode="&#xf129;" glyph-name="card" d="M768 640.667q36 0 61-25t25-61v-512q0-36-25-61t-61-25h-682q-36 0-61 25t-25 61v512q0 36 25 61t61 25h682zM768 42.667v256h-682v-256h682zM768 468.667v86h-682v-86h682z" />
<glyph unicode="&#xf12a;" glyph-name="folio-verfied" d="M768 532.667q36 0 61-25t25-59v-470q0-36-25-61t-61-25h-682q-36 0-61 25t-25 61v470q0 34 25 59t61 25h170v86l86 86h170l86-86v-86h170zM342 618.667v-86h170v86h-170zM362 42.667l282 282-60 60-222-222-88 90-60-60z" />
<glyph unicode="&#xf12b;" glyph-name="folio-download" d="M768 532.667q36 0 61-25t25-59v-470q0-36-25-61t-61-25h-682q-36 0-61 25t-25 61v470q0 34 25 59t61 25h170v86l86 86h170l86-86v-86h170zM342 618.667v-86h170v86h-170zM426-21.333l214 214h-128v170h-170v-170h-128z" />
<glyph unicode="&#xf12c;" glyph-name="folio-play" d="M598 554.667h256v-554q0-36-25-61t-61-25h-682q-36 0-61 25t-25 61v554h256v86q0 34 25 59t61 25h170q36 0 61-25t25-59v-86zM342 640.667v-86h170v86h-170zM298 42.667l320 214-320 170v-384z" />
<glyph unicode="&#xf12d;" glyph-name="folio" d="M768 554.667q36 0 61-25t25-61v-468q0-36-25-61t-61-25h-682q-36 0-61 25t-25 61v468q0 36 25 61t61 25h170v86q0 34 25 59t61 25h170q36 0 61-25t25-59v-86h170zM512 554.667v86h-170v-86h170z" />
<glyph unicode="&#xf12e;" glyph-name="stream-solid" horiz-adv-x="938" d="M0 42.667q54 0 91-37t37-91h-128v128zM0 212.667q124 0 211-87t87-211h-84q0 88-63 151t-151 63v84zM768 512.667v-428h-240q-42 128-136 222t-222 136v70h598zM0 384.667q194 0 332-138t138-332h-86q0 160-112 272t-272 112v86zM854 682.667q34 0 59-25t25-61v-596q0-36-25-61t-59-25h-300v86h300v596h-768v-128h-86v128q0 36 25 61t61 25h768z" />
<glyph unicode="&#xf12f;" glyph-name="stream-outline" horiz-adv-x="938" d="M854 682.667q34 0 59-25t25-61v-596q0-36-25-61t-59-25h-300v86h300v596h-768v-128h-86v128q0 36 25 61t61 25h768zM0 42.667q54 0 91-37t37-91h-128v128zM0 212.667q124 0 211-87t87-211h-84q0 88-63 151t-151 63v84zM0 384.667q194 0 332-138t138-332h-86q0 160-112 272t-272 112v86z" />
<glyph unicode="&#xf130;" glyph-name="chart-pie" d="M470 722.667q162-16 273-137t111-287q0-90-38-174l-112 66q22 54 22 108 0 112-74 196t-182 100v128zM426 0.667q144 0 234 112l110-66q-60-82-150-128t-194-46q-176 0-301 125t-125 301q0 166 111 287t273 137v-128q-110-16-183-100t-73-196q0-124 87-211t211-87z" />
<glyph unicode="&#xf131;" glyph-name="chart-bar" horiz-adv-x="768" d="M682 682.667q36 0 61-25t25-61v-596q0-36-25-61t-61-25h-596q-36 0-61 25t-25 61v596q0 36 25 61t61 25h596zM256 84.667v300h-86v-300h86zM426 84.667v428h-84v-428h84zM598 84.667v172h-86v-172h86z" />
<glyph unicode="&#xf132;" glyph-name="building-res" d="M426 512.667h428v-598h-854v768h426v-170zM170 0.667v84h-84v-84h84zM170 170.667v86h-84v-86h84zM170 340.667v86h-84v-86h84zM170 512.667v84h-84v-84h84zM342 0.667v84h-86v-84h86zM342 170.667v86h-86v-86h86zM342 340.667v86h-86v-86h86zM342 512.667v84h-86v-84h86zM768 0.667v426h-342v-86h86v-84h-86v-86h86v-86h-86v-84h342zM682 340.667v-84h-84v84h84zM682 170.667v-86h-84v86h84z" />
<glyph unicode="&#xf133;" glyph-name="building-office" horiz-adv-x="768" d="M512 340.667h256v-426h-768v598h256v84l128 128 128-128v-256zM170 0.667v84h-84v-84h84zM170 170.667v86h-84v-86h84zM170 340.667v86h-84v-86h84zM426 0.667v84h-84v-84h84zM426 170.667v86h-84v-86h84zM426 340.667v86h-84v-86h84zM426 512.667v84h-84v-84h84zM682 0.667v84h-84v-84h84zM682 170.667v86h-84v-86h84z" />
<glyph unicode="&#xf134;" glyph-name="cancel-outline" d="M538 468.667l60-60-112-110 112-110-60-60-112 110-110-110-60 60 110 110-110 110 60 60 110-110zM427 724.667q177 0 302-125t125-301-125-301-302-125-302 125-125 301 125 301 302 125zM427-43.333q141 0 241 100t100 242-100 242-241 100-241-100-100-242 100-242 241-100z" />
<glyph unicode="&#xf135;" glyph-name="cancel-solid" d="M427 724.667q177 0 302-125t125-301-125-301-302-125-302 125-125 301 125 301 302 125zM640 144.667l-154 154 154 154-60 60-154-154-152 154-60-60 152-154-152-154 60-60 152 154 154-154z" />
<glyph unicode="&#xf136;" glyph-name="close" horiz-adv-x="598" d="M598 536.667l-240-238 240-238-60-60-240 238-238-238-60 60 238 238-238 238 60 60 238-238 240 238z" />
<glyph unicode="&#xf137;" glyph-name="drinks" horiz-adv-x="768" d="M342 256.667l-342 340v86h768v-86l-342-340v-256h214v-86h-512v86h214v256zM192 512.667h384l86 84h-556z" />
<glyph unicode="&#xf138;" glyph-name="grow" horiz-adv-x="954" d="M296 522.667l-186-224 186-224-66-54-230 278 230 278zM264 256.667v84h86v-84h-86zM690 340.667v-84h-84v84h84zM434 256.667v84h86v-84h-86zM724 576.667l230-278-230-278-66 54 186 224-186 224z" />
<glyph unicode="&#xf139;" glyph-name="grow-device" horiz-adv-x="682" d="M128 596.667v-84h-86v170q0 36 25 61t61 25l426-2q36 0 61-24t25-60v-170h-86v84h-426zM486 102.667l-60 60 136 136-136 136 60 60 196-196zM256 162.667l-60-60-196 196 196 196 60-60-136-136zM554 0.667v84h86v-170q0-36-25-61t-61-25h-426q-36 0-61 25t-25 61v170h86v-84h426z" />
<glyph unicode="&#xf13a;" glyph-name="move" d="M316 102.667l-60-60-256 256 256 256 60-60-196-196zM538 102.667l196 196-196 196 60 60 256-256-256-256z" />
<glyph unicode="&#xf13b;" glyph-name="coffee" d="M768 682.667q36 0 61-25t25-61v-128q0-34-25-59t-61-25h-86v-128q0-72-50-122t-120-50h-256q-70 0-120 50t-50 122v426h682zM768 468.667v128h-86v-128h86zM0-85.333v86h768v-86h-768z" />
<glyph unicode="&#xf13c;" glyph-name="collections-bookmark" d="M86 554.667v-598h596v-84h-596q-36 0-61 25t-25 59v598h86zM768 724.667q36 0 61-25t25-59v-512q0-36-25-61t-61-25h-512q-36 0-61 25t-25 61v512q0 34 25 59t61 25h512zM768 298.667v342h-214v-342l108 64z" />
<glyph unicode="&#xf13d;" glyph-name="collections-purchase" horiz-adv-x="938" d="M86 426.667v-470h682q0-34-25-59t-61-25h-596q-36 0-61 25t-25 59v470h86zM726 596.667h212v-468q0-36-25-61t-59-25h-598q-36 0-61 25t-25 61v468h214v86q0 36 25 61t61 25h170q36 0 61-25t25-61v-86zM470 682.667v-86h170v86h-170zM470 170.667l234 170-234 128v-298z" />
<glyph unicode="&#xf13e;" glyph-name="collections-folder" d="M86 554.667v-598h768v-84h-768q-36 0-61 25t-25 59v598h86zM938 640.667q36 0 61-25t25-61v-426q0-36-25-61t-61-25h-682q-36 0-61 25t-25 61l2 512q0 34 24 59t60 25h256l86-84h340zM298 170.667h598l-150 192-106-128-150 192z" />
<glyph unicode="&#xf13f;" glyph-name="collections-image-outline" horiz-adv-x="938" d="M638 370.667l152-200h-470l118 150 82-100zM86 596.667v-682h682v-86h-682q-36 0-61 25t-25 61v682h86zM854 768.667q34 0 59-25t25-61v-598q0-34-25-59t-59-25h-598q-36 0-61 25t-25 59v598q0 36 25 61t61 25h598zM854 84.667v598h-598v-598h598z" />
<glyph unicode="&#xf140;" glyph-name="collections-image-solid" d="M854 128.667q0-36-25-61t-61-25h-512q-36 0-61 25t-25 61v512q0 34 25 59t61 25h512q36 0 61-25t25-59v-512zM384 298.667l-128-170h512l-170 212-128-158zM0 554.667h86v-598h596v-84h-596q-36 0-61 25t-25 59v598z" />
<glyph unicode="&#xf141;" glyph-name="collections-one" horiz-adv-x="938" d="M86 596.667v-682h682v-86h-682q-36 0-61 25t-25 61v682h86zM554 170.667v342h-84v84h170v-426h-86zM854 768.667q34 0 59-25t25-61v-598q0-34-25-59t-59-25h-598q-36 0-61 25t-25 59v598q0 36 25 61t61 25h598zM854 84.667v598h-598v-598h598z" />
<glyph unicode="&#xf142;" glyph-name="collections-two" horiz-adv-x="938" d="M86 596.667v-682h682v-86h-682q-36 0-61 25t-25 61v682h86zM854 768.667q34 0 59-25t25-61v-598q0-34-25-59t-59-25h-598q-36 0-61 25t-25 59v598q0 36 25 61t61 25h598zM854 84.667v598h-598v-598h598zM682 256.667v-86h-256v170q0 36 25 61t61 25h86v86h-172v84h172q34 0 59-25t25-59v-86q0-36-25-61t-59-25h-86v-84h170z" />
<glyph unicode="&#xf143;" glyph-name="collections-three" horiz-adv-x="938" d="M854 768.667q34 0 59-25t25-61v-598q0-34-25-59t-59-25h-598q-36 0-61 25t-25 59v598q0 36 25 61t61 25h598zM854 84.667v598h-598v-598h598zM86 596.667v-682h682v-86h-682q-36 0-61 25t-25 61v682h86zM682 256.667q0-36-25-61t-59-25h-172v86h172v84h-86v86h86v86h-172v84h172q34 0 59-25t25-59v-64q0-28-18-46t-46-18q28 0 46-19t18-45v-64z" />
<glyph unicode="&#xf144;" glyph-name="collections-four" horiz-adv-x="938" d="M86 596.667v-682h682v-86h-682q-36 0-61 25t-25 61v682h86zM598 170.667v170h-172v256h86v-170h86v170h84v-426h-84zM854 768.667q34 0 59-25t25-61v-598q0-34-25-59t-59-25h-598q-36 0-61 25t-25 59v598q0 36 25 61t61 25h598zM854 84.667v598h-598v-598h598z" />
<glyph unicode="&#xf145;" glyph-name="collections-five" horiz-adv-x="938" d="M854 768.667q34 0 59-25t25-61v-598q0-34-25-59t-59-25h-598q-36 0-61 25t-25 59v598q0 36 25 61t61 25h598zM854 84.667v598h-598v-598h598zM86 596.667v-682h682v-86h-682q-36 0-61 25t-25 61v682h86zM682 256.667q0-36-25-61t-59-25h-172v86h172v84h-172v256h256v-84h-170v-86h86q34 0 59-25t25-61v-84z" />
<glyph unicode="&#xf146;" glyph-name="collections-six" horiz-adv-x="938" d="M86 596.667v-682h682v-86h-682q-36 0-61 25t-25 61v682h86zM854 768.667q34 0 59-25t25-61v-598q0-34-25-59t-59-25h-598q-36 0-61 25t-25 59v598q0 36 25 61t61 25h598zM854 84.667v598h-598v-598h598zM512 170.667q-36 0-61 25t-25 61v256q0 34 25 59t61 25h170v-84h-170v-86h86q34 0 59-25t25-61v-84q0-36-25-61t-59-25h-86zM512 340.667v-84h86v84h-86z" />
<glyph unicode="&#xf147;" glyph-name="collections-seven" horiz-adv-x="938" d="M86 596.667v-682h682v-86h-682q-36 0-61 25t-25 61v682h86zM854 768.667q34 0 59-25t25-61v-598q0-34-25-59t-59-25h-598q-36 0-61 25t-25 59v598q0 36 25 61t61 25h598zM854 84.667v598h-598v-598h598zM512 170.667h-86l172 342h-172v84h256v-84z" />
<glyph unicode="&#xf148;" glyph-name="collections-eight" horiz-adv-x="938" d="M86 596.667v-682h682v-86h-682q-36 0-61 25t-25 61v682h86zM854 768.667q34 0 59-25t25-61v-598q0-34-25-59t-59-25h-598q-36 0-61 25t-25 59v598q0 36 25 61t61 25h598zM854 84.667v598h-598v-598h598zM512 170.667q-36 0-61 25t-25 61v64q0 26 19 45t45 19q-26 0-45 18t-19 46v64q0 34 25 59t61 25h86q34 0 59-25t25-59v-64q0-28-18-46t-46-18q28 0 46-19t18-45v-64q0-36-25-61t-59-25h-86zM512 512.667v-86h86v86h-86zM512 340.667v-84h86v84h-86z" />
<glyph unicode="&#xf149;" glyph-name="colections-nine-plus" horiz-adv-x="938" d="M86 596.667v-682h682v-86h-682q-36 0-61 25t-25 61v682h86zM554 298.667q0-36-25-61t-59-25h-128v86h128v42h-44q-34 0-59 25t-25 61v42q0 36 25 61t59 25h44q34 0 59-25t25-61v-170zM426 426.667h44v42h-44v-42zM854 768.667q34 0 59-25t25-61v-598q0-34-25-59t-59-25h-598q-36 0-61 25t-25 59v598q0 36 25 61t61 25h598zM854 426.667v256h-598v-598h598v256h-86v-84h-86v84h-84v86h84v86h86v-86h86z" />
<glyph unicode="&#xf14a;" glyph-name="collections-nine" horiz-adv-x="938" d="M86 596.667v-682h682v-86h-682q-36 0-61 25t-25 61v682h86zM854 768.667q34 0 59-25t25-61v-598q0-34-25-59t-59-25h-598q-36 0-61 25t-25 59v598q0 36 25 61t61 25h598zM854 84.667v598h-598v-598h598zM598 596.667q34 0 59-25t25-59v-256q0-36-25-61t-59-25h-172v86h172v84h-86q-36 0-61 25t-25 61v86q0 34 25 59t61 25h86zM598 426.667v86h-86v-86h86z" />
<glyph unicode="&#xf14b;" glyph-name="collections" horiz-adv-x="938" d="M86 596.667v-682h682v-86h-682q-36 0-61 25t-25 61v682h86zM854 768.667q34 0 59-25t25-61v-598q0-34-25-59t-59-25h-598q-36 0-61 25t-25 59v598q0 36 25 61t61 25h598zM854 84.667v598h-598v-598h598z" />
<glyph unicode="&#xf14c;" glyph-name="collections-songs" d="M768 724.667q36 0 61-25t25-59v-512q0-36-25-61t-61-25h-512q-36 0-61 25t-25 61v512q0 34 25 59t61 25h512zM682 512.667v84h-170v-234q-28 22-64 22-44 0-75-32t-31-76 31-75 75-31 75 31 31 75v236h128zM86 554.667v-598h596v-84h-596q-36 0-61 25t-25 59v598h86z" />
<glyph unicode="&#xf14d;" glyph-name="collections-pdf" d="M768 724.667q36 0 61-25t25-59v-512q0-36-25-61t-61-25h-512q-36 0-61 25t-25 61v512q0 34 25 59t61 25h512zM406 404.667v44q0 26-19 45t-45 19h-108v-256h64v84h44q26 0 45 19t19 45zM618 320.667v128q0 26-18 45t-46 19h-106v-256h106q28 0 46 18t18 46zM790 448.667v64h-128v-256h64v84h64v64h-64v44h64zM298 404.667v44h44v-44h-44zM86 554.667v-598h596v-84h-596q-36 0-61 25t-25 59v598h86zM512 320.667v128h42v-128h-42z" />
<glyph unicode="&#xf14e;" glyph-name="collections-add" d="M86 554.667v-598h596v-84h-596q-36 0-61 25t-25 59v598h86zM768 724.667q36 0 61-25t25-59v-512q0-36-25-61t-61-25h-512q-36 0-61 25t-25 61v512q0 34 25 59t61 25h512zM726 340.667v86h-172v170h-84v-170h-172v-86h172v-170h84v170h172z" />
<glyph unicode="&#xf14f;" glyph-name="collections-sound" horiz-adv-x="682" d="M606 768.667q32 0 54-23t22-55v-614q0-32-22-54t-54-22h-358q-32 0-55 22t-23 54v614q0 32 23 55t55 23h358zM427 682.667q-35 0-60-25t-25-60 25-60 60-25 60 25 25 60-25 60-60 25zM427 106.667q71 0 121 50t50 121-50 121-121 50-121-50-50-121 50-121 121-50zM320 277.667q0 107 107 107t107-107-107-107-107 107zM86 596.667v-682h426v-86h-426q-36 0-61 25t-25 61v682h86z" />
<glyph unicode="&#xf150;" glyph-name="collections-details" d="M86 554.667v-598h596v-84h-596q-36 0-61 25t-25 59v598h86zM768 724.667q36 0 61-25t25-59v-512q0-36-25-61t-61-25h-512q-36 0-61 25t-25 61v512q0 34 25 59t61 25h512zM726 340.667v86h-428v-86h428zM554 170.667v86h-256v-86h256zM726 512.667v84h-428v-84h428z" />
<glyph unicode="&#xf151;" glyph-name="collections-video" d="M171 554.667v-598h596v-84h-596q-36 0-61 25t-25 59v598h86zM853 724.667q36 0 61-25t25-59v-512q0-36-25-61t-61-25h-512q-36 0-61 25t-25 61v512q0 34 25 59t61 25h512zM511 192.667l256 192-256 192v-384z" />
<glyph unicode="&#xf152;" glyph-name="compass" d="M427 344.667q19 0 33-13t14-33-14-33-33-13-33 13-14 33 14 33 33 13zM427 724.667q177 0 302-125t125-301-125-301-302-125-302 125-125 301 125 301 302 125zM520 204.667l162 350-348-162-164-350z" />
<glyph unicode="&#xf153;" glyph-name="restaurant" horiz-adv-x="816" d="M228 240.667l-178 180q-50 50-50 120t50 120l300-298zM518 318.667l-62-62 292-294-60-60-292 294-294-294-62 60 418 416q-24 48-8 112t66 114q62 60 138 70t123-37 37-123-72-138q-50-50-113-66t-111 8z" />
<glyph unicode="&#xf154;" glyph-name="trash-solid" horiz-adv-x="1025" d="M255.333 0.667v512h512v-512q0-36-25-61t-59-25h-342q-36 0-61 25t-25 61zM811.333 640.667v-86h-598v86h150l42 42h214l42-42h150z" />
<glyph unicode="&#xf155;" glyph-name="dialpad" horiz-adv-x="682" d="M341 0.667q35 0 60-25t25-61-25-61-60-25-60 25-25 61 25 61 60 25zM85 768.667q35 0 60-25t25-61-25-61-60-25-60 25-25 61 25 61 60 25zM85 512.667q35 0 60-25t25-61-25-61-60-25-60 25-25 61 25 61 60 25zM85 256.667q35 0 60-25t25-61-25-61-60-25-60 25-25 61 25 61 60 25zM597 596.667q-35 0-60 25t-25 61 25 61 60 25 60-25 25-61-25-61-60-25zM341 256.667q35 0 60-25t25-61-25-61-60-25-60 25-25 61 25 61 60 25zM597 256.667q35 0 60-25t25-61-25-61-60-25-60 25-25 61 25 61 60 25zM597 512.667q35 0 60-25t25-61-25-61-60-25-60 25-25 61 25 61 60 25zM341 512.667q35 0 60-25t25-61-25-61-60-25-60 25-25 61 25 61 60 25zM341 768.667q35 0 60-25t25-61-25-61-60-25-60 25-25 61 25 61 60 25z" />
<glyph unicode="&#xf156;" glyph-name="hdd-nas" horiz-adv-x="768" d="M726 256.667q16 0 29-13t13-31v-256q0-16-13-29t-29-13h-684q-16 0-29 13t-13 29v256q0 18 13 31t29 13h684zM171 0.667q35 0 60 25t25 60-25 60-60 25-60-25-25-60 25-60 60-25zM726 682.667q16 0 29-13t13-29v-256q0-18-13-31t-29-13h-684q-16 0-29 13t-13 31v256q0 16 13 29t29 13h684zM171 426.667q35 0 60 25t25 60-25 60-60 25-60-25-25-60 25-60 60-25z" />
<glyph unicode="&#xf157;" glyph-name="water" horiz-adv-x="768" d="M0 724.667h768l-86-778q-4-32-28-53t-56-21h-428q-32 0-56 21t-28 53zM384 0.667q54 0 91 37t37 91q0 38-32 95t-64 97l-32 38q-14-16-35-43t-57-88-36-99q0-54 37-91t91-37zM654 468.667l18 172h-576l18-172h540z" />
<glyph unicode="&#xf158;" glyph-name="edit" horiz-adv-x="768" d="M0 74.667l472 472 160-160-472-472h-160v160zM756 510.667l-78-78-160 160 78 78q12 12 30 12t30-12l100-100q12-12 12-30t-12-30z" />
<glyph unicode="&#xf159;" glyph-name="mail-read" d="M852 468.667l2-426q0-36-25-61t-61-25h-682q-36 0-61 25t-25 61v426q0 48 40 74l386 226 386-226q40-26 40-74zM426 256.667l354 220-354 206-352-206z" />
<glyph unicode="&#xf15a;" glyph-name="mail-unread" d="M768 640.667q36 0 61-25t25-61v-512q0-36-25-61t-61-25h-682q-36 0-61 25t-25 61v512q0 36 25 61t61 25h682zM768 468.667v86l-342-214-340 214v-86l340-212z" />
<glyph unicode="&#xf15b;" glyph-name="hide" horiz-adv-x="938" d="M470 512.667q-40 0-78-16l-92 92q82 30 168 30 158 0 286-89t184-231q-46-120-146-202l-124 124q14 38 14 78 0 88-62 151t-150 63zM42 628.667l54 54 758-756-54-54-126 124-18 18q-90-36-186-36-158 0-286 89t-184 231q50 128 160 212l-20 20zM278 392.667q-22-46-22-94 0-88 63-151t151-63q48 0 94 24l-66 66q-16-4-28-4-54 0-91 37t-37 91q0 14 2 28zM462 426.667h8q52 0 90-38t38-90l-2-8z" />
<glyph unicode="&#xf15c;" glyph-name="show" horiz-adv-x="938" d="M470 618.667q158 0 285-89t183-231q-56-142-183-231t-285-89-286 89-184 231q56 142 184 231t286 89zM470 84.667q88 0 150 63t62 151-62 151-150 63-151-63-63-151 63-151 151-63zM469 426.667q53 0 91-37t38-91-38-91-91-37-90 37-37 91 37 91 90 37z" />
<glyph unicode="&#xf15d;" glyph-name="picker" horiz-adv-x="768" d="M756 570.667q12-12 12-30t-12-30l-134-134 82-82-60-60-60 60-382-380h-202v202l380 382-60 60 60 60 82-82 134 134q12 12 30 12t30-12zM168 0.667l344 344-82 82-344-344z" />
<glyph unicode="&#xf15e;" glyph-name="heart-outline" d="M618 682.667q100 0 168-68t68-166q0-48-20-97t-44-87-81-98-96-97-125-113l-62-56-62 54q-84 78-124 115t-97 97-81 98-43 87-19 97q0 98 68 166t166 68q116 0 192-90 76 90 192 90zM430 18.667q98 88 143 131t99 103 75 105 21 91q0 64-43 106t-107 42q-48 0-91-28t-61-72h-80q-16 44-59 72t-93 28q-64 0-106-42t-42-106q0-46 20-91t75-105 100-103 141-131l4-4z" />
<glyph unicode="&#xf15f;" glyph-name="heart-solid" d="M426-99.333l-62 56q-84 76-124 113t-96 97-81 98-44 87-19 97q0 98 68 166t166 68q116 0 192-90 76 90 192 90 100 0 168-68t68-166q0-48-20-97t-44-87-81-98-96-97-125-115z" />
<glyph unicode="&#xf160;" glyph-name="filter" horiz-adv-x="768" d="M298 42.667v86h172v-86h-172zM0 554.667h768v-86h-768v86zM128 256.667v84h512v-84h-512z" />
<glyph unicode="&#xf161;" glyph-name="fire" horiz-adv-x="682" d="M406 782.667q128-104 202-252t74-318q0-140-100-240t-241-100-241 100-100 240q0 216 138 380l-2-16q0-66 45-112t111-46q64 0 104 46t40 112q0 42-7 93t-15 81zM328 0.667q86 0 146 60t60 144q0 90-26 172-60-82-196-110-58-12-89-47t-31-85q0-56 40-95t96-39z" />
<glyph unicode="&#xf162;" glyph-name="flag" horiz-adv-x="640" d="M402 554.667h238v-426h-298l-18 84h-238v-298h-86v726h384z" />
<glyph unicode="&#xf163;" glyph-name="star" horiz-adv-x="938" d="M256 340.667v-84h-256v84h256zM348 478.667l-60-60-90 92 60 60zM512 768.667v-256h-86v256h86zM740 510.667l-90-92-60 60 90 92zM682 340.667h256v-84h-256v84zM469 426.667q53 0 91-37t38-91-38-91-91-37-90 37-37 91 37 91 90 37zM590 118.667l60 60 90-92-60-60zM198 86.667l90 92 60-60-90-92zM426-171.333v256h86v-256h-86z" />
<glyph unicode="&#xf164;" glyph-name="flash-auto" horiz-adv-x="820" d="M0 724.667h426l-170-384h170l-298-512v384h-128v512zM682 724.667l138-384h-82l-30 86h-136l-30-86h-82l138 384h84zM590 484.667h100l-50 156z" />
<glyph unicode="&#xf165;" glyph-name="flash-no" horiz-adv-x="726" d="M54 682.667l672-672-54-54-178 178-152-262v384h-128v158l-214 214zM640 384.667l-66-114-360 362v92h426l-170-340h170z" />
<glyph unicode="&#xf166;" glyph-name="flash" horiz-adv-x="426" d="M0 724.667h426l-170-340h170l-298-512v384h-128v468z" />
<glyph unicode="&#xf167;" glyph-name="complete" horiz-adv-x="768" d="M512-85.333v86h86v-86h-86zM682 426.667v86h86v-86h-86zM0 596.667q0 36 25 61t61 25h170v-86h-170v-596h170v-86h-170q-36 0-61 25t-25 61v596zM682 682.667q36 0 61-25t25-61h-86v86zM342-171.333v940h84v-940h-84zM682 84.667v86h86v-86h-86zM512 596.667v86h86v-86h-86zM682 256.667v84h86v-84h-86zM682-85.333v86h86q0-36-25-61t-61-25z" />
<glyph unicode="&#xf168;" glyph-name="plant" horiz-adv-x="768" d="M384-127.333q0 158 112 271t272 113q0-160-112-272t-272-112zM110 372.667q0 68 62 96-62 30-62 96 0 44 32 76t76 32q34 0 60-20v8q0 44 31 76t75 32 75-32 31-76v-8q28 20 60 20 44 0 76-32t32-76q0-66-62-96 62-28 62-96 0-44-32-75t-76-31q-34 0-60 18v-8q0-44-31-75t-75-31-75 31-31 75v8q-28-18-60-18-44 0-76 31t-32 75zM384 576.667q-44 0-75-32t-31-76 31-75 75-31 75 31 31 75-31 76-75 32zM0 256.667q160 0 272-113t112-271q-160 0-272 112t-112 272z" />
<glyph unicode="&#xf169;" glyph-name="flower" horiz-adv-x="828" d="M700 280.667q60-34 94-94t34-126q-58-34-126-35t-130 35q-18 10-34 22 4-20 4-40 0-70-35-129t-93-93q-58 34-93 93t-35 129q0 20 4 40-18-14-34-22-62-34-130-34t-126 34q0 68 34 127t94 95q16 8 36 16-20 8-36 18-60 34-94 94t-34 126q58 34 126 35t130-35q16-8 34-22-4 20-4 40 0 70 35 129t93 93q58-34 93-93t35-129q0-20-4-40 18 14 34 22 62 36 130 35t126-35q0-66-34-126t-94-94q-16-10-36-18 20-8 36-18zM414 128.667q70 0 120 50t50 120-50 120-120 50-120-50-50-120 50-120 120-50z" />
<glyph unicode="&#xf16a;" glyph-name="text" d="M338 234.667l88 236 88-236h-176zM768 724.667q36 0 61-25t25-59v-684q0-34-25-59t-61-25h-682q-36 0-61 25t-25 59v684q0 34 25 59t61 25h682zM596 20.667h88l-218 556h-80l-218-556h90l48 128h240z" />
<glyph unicode="&#xf16b;" glyph-name="stretch" horiz-adv-x="938" d="M470 576.667l84-108h-170zM726 384.667l106-86-106-86v172zM214 384.667v-172l-108 86zM554 128.667l-84-108-86 108h170zM854 682.667q34 0 59-25t25-61v-596q0-36-25-61t-59-25h-768q-36 0-61 25t-25 61v596q0 36 25 61t61 25h768zM854-1.333v600h-768v-600h768z" />
<glyph unicode="&#xf16c;" glyph-name="window-collapse" horiz-adv-x="598" d="M0 128.667v84h214v-212h-86v128h-128zM128 468.667v128h86v-212h-214v84h128zM384 0.667v212h214v-84h-128v-128h-86zM470 468.667h128v-84h-214v212h86v-128z" />
<glyph unicode="&#xf16d;" glyph-name="window-expand" horiz-adv-x="598" d="M86 212.667v-128h128v-84h-214v212h86zM0 384.667v212h214v-84h-128v-128h-86zM512 84.667v128h86v-212h-214v84h128zM384 596.667h214v-212h-86v128h-128v84z" />
<glyph unicode="&#xf16e;" glyph-name="formula" horiz-adv-x="512" d="M512 640.667v-128h-298l212-214-212-214h298v-128h-512v86l278 256-278 256v86h512z" />
<glyph unicode="&#xf16f;" glyph-name="fuel" horiz-adv-x="704" d="M672 502.667q32-32 32-76v-406q0-44-31-75t-75-31-76 31-32 75v214h-64v-320h-426v682q0 36 25 61t61 25h256q34 0 59-25t25-61v-298h44q34 0 59-25t25-61v-192q0-16 13-29t30-13 30 13 13 29v308q-22-8-42-8-44 0-76 31t-32 75q0 34 19 61t51 39l-90 90 44 44 160-158h-2zM342 384.667v212h-256v-212h256zM597 384.667q17 0 30 12t13 30-13 30-30 12-30-12-13-30 13-30 30-12z" />
<glyph unicode="&#xf170;" glyph-name="draw" horiz-adv-x="774" d="M74 516.667l-74 72q10 12 38 40 52 54 116 54 36 0 71-30t35-92q0-40-12-68t-42-72q-58-86-80-150-10-36-5-59t21-23q18 0 48 36 32 34 96 116 36 44 92 82t120 38q84 0 125-55t47-123h104v-106h-104q-12-138-73-200t-127-62q-56 0-97 39t-41 93q0 66 60 139t170 91v6q-2 16-5 25t-10 21-22 18-37 6q-36 0-78-40t-96-106q-32-38-47-56t-39-37-46-25q-60-20-112 18-58 44-58 128 0 28 12 65t30 71 33 60 31 49 16 25q36 56 14 64-16 6-74-52zM472 18.667q28 0 55 36t35 114q-60-16-91-54t-31-64q0-14 10-23t22-9z" />
<glyph unicode="&#xf171;" glyph-name="internet" d="M427 724.667q177 0 302-125t125-301-125-301-302-125-302 125-125 301 125 301 302 125zM722 468.667q-64 112-184 152 38-70 58-152h126zM426 638.667q-54-78-80-170h162q-28 92-82 170zM96 212.667h144q-6 50-6 86t6 86h-144q-10-46-10-86t10-86zM132 128.667q64-112 184-152-38 70-58 152h-126zM258 468.667q20 82 58 152-120-40-184-152h126zM426-41.333q54 78 82 170h-162q26-92 80-170zM526 212.667q8 50 8 86t-8 86h-200q-6-50-6-86t6-86h200zM538-23.333q120 40 184 152h-126q-20-82-58-152zM612 212.667h144q12 46 12 86t-12 86h-144q6-50 6-86t-6-86z" />
<glyph unicode="&#xf172;" glyph-name="connection-secure" horiz-adv-x="938" d="M896 640.667q18 0 30-13t12-31v-170q0-18-12-30t-30-12h-214q-16 0-29 12t-13 30v170q0 18 13 31t29 13v20q0 44 32 76t76 32 75-32 31-76v-20zM862 640.667v20q0 30-21 52t-51 22-52-22-22-52v-20h146zM764 298.667h88q2-24 2-42 0-178-125-303t-302-125-302 125-125 302 125 302 301 125q66 0 128-20v-108q0-36-25-61t-59-25h-86v-84q0-18-13-31t-29-13h-86v-84h256q18 0 30-13t12-31v-128h44q28 0 50-16t30-42q90 98 90 230 0 14-4 42zM384-83.333v84q-36 0-61 25t-25 59v44l-204 204q-8-40-8-76 0-130 85-227t213-113z" />
<glyph unicode="&#xf173;" glyph-name="connection" d="M427 724.667q177 0 302-125t125-301-125-301-302-125-302 125-125 301 125 301 302 125zM384-39.333v82q-36 0-61 25t-25 61v42l-204 204q-8-40-8-76 0-130 85-226t213-112zM678 68.667q90 98 90 230 0 106-59 192t-155 124v-18q0-34-25-59t-59-25h-86v-86q0-18-13-30t-29-12h-86v-86h256q18 0 30-13t12-29v-128h44q28 0 50-17t30-43z" />
<glyph unicode="&#xf174;" glyph-name="school" horiz-adv-x="938" d="M170 248.667l300-164 298 164v-172l-298-162-300 162v172zM470 682.667l468-256v-342h-84v296l-384-210-470 256z" />
<glyph unicode="&#xf175;" glyph-name="home" d="M342-43.333h-214v342h-128l426 384 428-384h-128v-342h-214v256h-170v-256z" />
<glyph unicode="&#xf176;" glyph-name="chemist" horiz-adv-x="768" d="M768 596.667v-84l-86-256 86-256v-86h-768v86l86 256-86 256v84h542l62 172 100-38-48-134h112zM554 212.667v86h-128v128h-84v-128h-128v-86h128v-128h84v128h128z" />
<glyph unicode="&#xf177;" glyph-name="add-object" horiz-adv-x="768" d="M682 682.667q36 0 61-25t25-61v-596q0-36-25-61t-61-25h-596q-36 0-61 25t-25 61v596q0 36 25 61t61 25h596zM640 212.667v172h-170v170h-172v-170h-170v-172h170v-170h172v170h170z" />
<glyph unicode="&#xf178;" glyph-name="bed" horiz-adv-x="938" d="M256 256.667q-54 0-91 37t-37 90 37 91 91 38 91-38 37-91-37-90-91-37zM768 512.667q70 0 120-50t50-122v-384h-84v128h-768v-128h-86v640h86v-384h340v300h342z" />
<glyph unicode="&#xf179;" glyph-name="timer-running" horiz-adv-x="512" d="M0 724.667h512v-256l-170-170 170-170v-256h-512v256l170 170-170 170v256zM426 106.667l-170 170-170-170h340zM86 490.667h340v150h-340v-150z" />
<glyph unicode="&#xf17a;" glyph-name="timer-outline" horiz-adv-x="512" d="M0 724.667h512v-256l-170-170 170-170v-256h-512v256l170 170-170 170v256zM426 106.667l-170 170-170-170v-150h340v150zM256 320.667l170 170v150h-340v-150z" />
<glyph unicode="&#xf17b;" glyph-name="timer-solid" horiz-adv-x="512" d="M0 724.667h512v-256l-170-170 170-170v-256h-512v256l170 170-170 170v256z" />
<glyph unicode="&#xf17c;" glyph-name="url" horiz-adv-x="938" d="M150 340.667v86h64v-256h-64v106h-86v-106h-64v256h64v-86h86zM256 362.667v64h192v-64h-64v-192h-64v192h-64zM490 362.667v64h192v-64h-64v-192h-64v192h-64zM874 426.667q26 0 45-19t19-45v-42q0-26-19-45t-45-19h-84v-86h-64v256h148zM874 320.667v42h-84v-42h84z" />
<glyph unicode="&#xf17d;" glyph-name="picture-landscape" horiz-adv-x="938" d="M938 42.667q0-36-25-61t-59-25h-768q-36 0-61 25t-25 61v512q0 36 25 61t61 25h768q34 0 59-25t25-61v-512zM320 276.667l-150-192h598l-192 256-150-192z" />
<glyph unicode="&#xf17e;" glyph-name="picture-outline" horiz-adv-x="768" d="M682 682.667q36 0 61-25t25-61v-596q0-36-25-61t-61-25h-596q-36 0-61 25t-25 61v596q0 36 25 61t61 25h596zM682 0.667v596h-596v-596h596zM468 286.667l150-202h-468l116 152 84-102z" />
<glyph unicode="&#xf17f;" glyph-name="picture-solid" horiz-adv-x="768" d="M768 0.667q0-36-25-61t-61-25h-596q-36 0-61 25t-25 61v596q0 36 25 61t61 25h596q36 0 61-25t25-61v-596zM234 234.667l-148-192h596l-192 256-148-192z" />
<glyph unicode="&#xf180;" glyph-name="inbox" d="M810 682.667q36 0 61-25t25-61v-596q0-36-25-61t-61-25h-598q-34 0-59 25t-25 61v596q0 36 25 61t59 25h598zM810 170.667v426h-598v-426h172q0-54 37-91t91-37 91 37 37 91h170zM682 384.667l-170-172-170 172h84v128h172v-128h84z" />
<glyph unicode="&#xf181;" glyph-name="colours-remove" horiz-adv-x="768" d="M754-79.333l14-16-54-54-116 116q-92-76-214-76-142 0-242 100-92 92-99 224t75 232l-118 118 54 54 598-598zM384-25.333v206l-204 204q-52-68-52-154 0-106 76-180 74-76 180-76zM384 592.667l-98-96-60 60 158 158 242-242q76-78 94-185t-26-199l-310 308v196z" />
<glyph unicode="&#xf182;" glyph-name="colours" horiz-adv-x="682" d="M582 472.667q100-100 100-242t-100-241-241-99-241 99-100 241 100 242l242 242zM342-25.333v618l-182-180q-74-76-74-182t74-180q74-76 182-76z" />
<glyph unicode="&#xf183;" glyph-name="key" horiz-adv-x="938" d="M498 384.667h440v-172h-84v-170h-172v170h-184q-28-74-94-122t-148-48q-106 0-181 75t-75 181 75 181 181 75q82 0 148-48t94-122zM256 212.667q36 0 61 25t25 61-25 61-61 25-61-25-25-61 25-61 61-25z" />
<glyph unicode="&#xf184;" glyph-name="mark-outline" horiz-adv-x="810" d="M624 560.667l186-262-186-262q-26-36-70-36h-468q-36 0-61 25t-25 59v428q0 34 25 59t61 25h468q44 0 70-36zM554 84.667l152 214-152 214h-468v-428h468z" />
<glyph unicode="&#xf185;" glyph-name="mark-solid" horiz-adv-x="810" d="M624 560.667l186-262-186-262q-26-36-70-36h-468q-36 0-61 25t-25 59v428q0 34 25 59t61 25h468q44 0 70-36z" />
<glyph unicode="&#xf186;" glyph-name="tag-design" d="M828 316.667q26-26 26-61t-26-59l-298-300q-26-24-61-24t-59 24l-384 384q-26 26-26 60v300q0 34 25 59t61 25h298q36 0 60-24zM149 512.667q27 0 46 18t19 45-19 46-46 19-45-19-18-46 18-45 45-18zM652 158.667q30 32 30 76t-31 75-75 31-76-30l-30-32-32 32q-30 30-76 30-44 0-75-31t-31-75 32-76l182-182z" />
<glyph unicode="&#xf187;" glyph-name="tag" d="M828 316.667q26-26 26-61t-26-59l-298-300q-26-24-61-24t-59 24l-384 384q-26 26-26 60v300q0 34 25 59t61 25h298q36 0 60-24zM149 512.667q27 0 46 18t19 45-19 46-46 19-45-19-18-46 18-45 45-18z" />
<glyph unicode="&#xf188;" glyph-name="shadecard" horiz-adv-x="892" d="M52-27.333q-32 14-45 46t-1 64l104 250v-384zM884 130.667q14-32 0-65t-46-47l-314-130q-16-6-32-6-58 0-78 52l-212 512q-8 16-6 34 0 56 52 76l314 130q16 6 34 6 56 0 78-52zM281 436.667q17 0 30 13t13 30-13 30-30 13-30-13-13-30 13-30 30-13zM196-31.333v270l146-356h-62q-34 0-59 25t-25 61z" />
<glyph unicode="&#xf189;" glyph-name="bulb" horiz-adv-x="938" d="M108 18.667l78 78 60-60-78-78zM426-147.333v126h86v-126h-86zM128 362.667v-86h-128v86h128zM598 540.667q58-34 93-92t35-128q0-106-75-181t-181-75-181 75-75 181q0 70 34 128t94 92v206h256v-206zM810 362.667h128v-86h-128v86zM692 36.667l60 58 78-76-60-60z" />
<glyph unicode="&#xf18a;" glyph-name="landscape" horiz-adv-x="938" d="M554 554.667l384-512h-938l256 342 192-256 68 50-122 162z" />
<glyph unicode="&#xf18b;" glyph-name="layers-none" d="M760 170.667l-62 62 52 38 60-60zM740 372.667l-102-80-336 336 124 96 384-298zM54 768.667l800-800-54-54-162 162-212-164-384 298 70 54 314-246 152 118-62 60-90-68-314 244-70 54 138 108-180 180z" />
<glyph unicode="&#xf18c;" glyph-name="layers" horiz-adv-x="768" d="M384 18.667l314 246 70-54-384-298-384 298 70 54zM384 128.667l-314 244-70 54 384 298 384-298-70-54z" />
<glyph unicode="&#xf18d;" glyph-name="library" horiz-adv-x="768" d="M384 318.667q162 150 384 150v-468q-220 0-384-152-162 152-384 152v468q222 0 384-150zM384 468.667q-54 0-91 38t-37 91 37 90 91 37 91-37 37-90-37-91-91-38z" />
<glyph unicode="&#xf18e;" glyph-name="link" d="M82 298.667q0-54 38-93t94-39h170v-82h-170q-88 0-151 63t-63 151 63 151 151 63h170v-82h-170q-56 0-94-39t-38-93zM256 256.667v84h342v-84h-342zM640 512.667q88 0 151-63t63-151-63-151-151-63h-170v82h170q54 0 93 39t39 93-39 93-93 39h-170v82h170z" />
<glyph unicode="&#xf18f;" glyph-name="unlock" horiz-adv-x="682" d="M341 84.667q-35 0-60 25t-25 61 25 61 60 25 60-25 25-61-25-61-60-25zM598 468.667q34 0 59-25t25-59v-428q0-34-25-59t-59-25h-512q-36 0-61 25t-25 59v428q0 34 25 59t61 25h388v86q0 54-39 93t-94 39-93-39-38-93h-82q0 88 63 151t151 63 150-63 62-151v-86h44zM598-43.333v428h-512v-428h512z" />
<glyph unicode="&#xf190;" glyph-name="lock-outline" horiz-adv-x="682" d="M598 468.667q34 0 59-25t25-59v-428q0-34-25-59t-59-25h-512q-36 0-61 25t-25 59v428q0 34 25 59t61 25h42v86q0 88 63 151t151 63 150-63 62-151v-86h44zM341 686.667q-55 0-93-39t-38-93h4v-86h260v86q0 54-39 93t-94 39zM598-43.333v428h-512v-428h512zM341 84.667q-35 0-60 25t-25 61 25 61 60 25 60-25 25-61-25-61-60-25z" />
<glyph unicode="&#xf191;" glyph-name="lock-solid" horiz-adv-x="682" d="M598 468.667q34 0 59-25t25-59v-428q0-34-25-59t-59-25h-512q-36 0-61 25t-25 59v428q0 34 25 59t61 25h42v86q0 88 63 151t151 63 150-63 62-151v-86h44zM341 84.667q35 0 60 25t25 61-25 61-60 25-60-25-25-61 25-61 60-25zM474 468.667v86q0 54-39 93t-94 39-93-39-38-93v-86h264z" />
<glyph unicode="&#xf192;" glyph-name="undo-all" d="M298 468.667l-170-170 170-170v-128l-298 298 298 298v-128zM554 426.667q108-16 193-61t139-111 87-139 51-159q-156 218-470 218v-174l-298 298 298 298v-170z" />
<glyph unicode="&#xf193;" glyph-name="undo" horiz-adv-x="768" d="M298 426.667q108-16 193-61t139-111 87-139 51-159q-156 218-470 218v-174l-298 298 298 298v-170z" />
<glyph unicode="&#xf194;" glyph-name="send" horiz-adv-x="896" d="M0-85.333v298l640 86-640 86v298l896-384z" />
<glyph unicode="&#xf195;" glyph-name="mall" horiz-adv-x="768" d="M682 554.667q36 0 61-25t25-61v-512q0-34-25-59t-61-25h-596q-36 0-61 25t-25 59v512q0 36 25 61t61 25h84q0 88 63 151t151 63 151-63 63-151h84zM384 682.667q-54 0-91-37t-37-91h256q0 54-37 91t-91 37zM384 256.667q88 0 151 62t63 150h-86q0-52-37-90t-91-38-91 38-37 90h-86q0-88 63-150t151-62z" />
<glyph unicode="&#xf196;" glyph-name="layout" horiz-adv-x="768" d="M746 682.667q22 0 22-22v-644q0-16-16-20l-240-82-256 90-228-88-6-2q-22 0-22 22v644q0 16 16 20l240 82 256-90 228 88zM512 0.667v506l-256 90v-506z" />
<glyph unicode="&#xf197;" glyph-name="settings" horiz-adv-x="864" d="M0 10.667v96h864v-96h-864zM0 250.667v96h864v-96h-864zM0 586.667h864v-96h-864v96z" />
<glyph unicode="&#xf198;" glyph-name="dollar-cash" d="M384 84.667v44h-86v84h172v44h-128q-18 0-31 12t-13 30v128q0 18 13 30t31 12h42v44h86v-44h84v-84h-170v-44h128q18 0 30-12t12-30v-128q0-18-12-30t-30-12h-42v-44h-86zM768 640.667q36 0 61-25t25-61v-512q0-36-25-61t-61-25h-682q-36 0-61 25t-25 61v512q0 36 25 61t61 25h682zM768 42.667v512h-682v-512h682z" />
<glyph unicode="&#xf199;" glyph-name="dollar-none" horiz-adv-x="678" d="M360 516.667q-36 0-64-12l-64 62q30 16 64 24v92h128v-94q64-16 99-60t39-102h-96q-4 90-106 90zM54 636.667l624-624-54-54-96 96q-38-36-104-48v-92h-128v92q-66 14-110 56t-46 108h92q10-90 128-90 76 0 104 40l-150 148q-168 50-168 168l-146 146z" />
<glyph unicode="&#xf19a;" glyph-name="dollar" horiz-adv-x="434" d="M234 344.667q92-22 146-64t54-122q0-64-41-102t-107-50v-92h-128v92q-68 14-111 56t-47 108h94q8-90 128-90 62 0 88 24t26 52q0 34-27 60t-101 44q-200 48-200 176 0 58 42 99t108 55v92h128v-94q64-16 99-60t37-102h-94q-4 90-106 90-54 0-85-22t-31-58q0-30 28-51t100-41z" />
<glyph unicode="&#xf19b;" glyph-name="settings-min" horiz-adv-x="170" d="M85 468.667q-35 0-60 25t-25 61 25 61 60 25 60-25 25-61-25-61-60-25zM85 384.667q35 0 60-25t25-61-25-61-60-25-60 25-25 61 25 61 60 25zM85 128.667q35 0 60-25t25-61-25-61-60-25-60 25-25 61 25 61 60 25z" />
<glyph unicode="&#xf19c;" glyph-name="ellipsis" horiz-adv-x="682" d="M85 384.667q35 0 60-25t25-61-25-61-60-25-60 25-25 61 25 61 60 25zM597 384.667q35 0 60-25t25-61-25-61-60-25-60 25-25 61 25 61 60 25zM341 384.667q35 0 60-25t25-61-25-61-60-25-60 25-25 61 25 61 60 25z" />
<glyph unicode="&#xf19d;" glyph-name="film" horiz-adv-x="682" d="M598 682.667h84v-768h-84v86h-86v-86h-342v86h-84v-86h-86v768h86v-86h84v86h342v-86h86v86zM170 84.667v86h-84v-86h84zM170 256.667v84h-84v-84h84zM170 426.667v86h-84v-86h84zM598 84.667v86h-86v-86h86zM598 256.667v84h-86v-84h86zM598 426.667v86h-86v-86h86z" />
<glyph unicode="&#xf19e;" glyph-name="movie" d="M682 640.667h172v-598q0-36-25-61t-61-25h-682q-36 0-61 25t-25 61v512q0 36 25 61t61 25h42l86-172h128l-86 172h86l84-172h128l-84 172h84l86-172h128z" />
<glyph unicode="&#xf19f;" glyph-name="tree-man" horiz-adv-x="860" d="M860 418.667q0-114-75-198t-187-98v-166h128v-84h-684v212h-42v172q0 16 13 29t29 13h128q18 0 31-13t13-29v-172h-44v-128h342v168q-106 18-177 101t-71 193q0 124 87 212t211 88 211-88 87-212zM107 340.667q-27 0-46 19t-19 46 19 45 46 18 45-18 18-45-18-46-45-19z" />
<glyph unicode="&#xf1a0;" glyph-name="tree" horiz-adv-x="604" d="M342 122.667v-166h256v-84h-598v84h256v168q-106 18-177 101t-71 193q0 124 87 212t211 88 211-88 87-212q0-114-75-198t-187-98z" />
<glyph unicode="&#xf1a1;" glyph-name="pointer" horiz-adv-x="640" d="M320 724.667l320-780-30-30-290 128-290-128-30 30z" />
<glyph unicode="&#xf1a2;" glyph-name="upload" horiz-adv-x="768" d="M682 640.667q36 0 61-25t25-61v-512q0-36-25-61t-61-25h-170v86h170v426h-596v-426h170v-86h-170q-36 0-61 25t-25 61v512q0 36 25 61t61 25h596zM384 384.667l170-172h-128v-256h-84v256h-128z" />
<glyph unicode="&#xf1a3;" glyph-name="goto-link" horiz-adv-x="768" d="M682 0.667v298h86v-298q0-36-25-61t-61-25h-596q-36 0-61 25t-25 61v596q0 36 25 61t61 25h298v-86h-298v-596h596zM470 682.667h298v-298h-86v152l-418-418-60 60 418 418h-152v86z" />
<glyph unicode="&#xf1a4;" glyph-name="pallette" horiz-adv-x="768" d="M384 682.667q160 0 272-100t112-242q0-88-63-150t-151-62h-74q-28 0-46-19t-18-45q0-24 16-42 16-20 16-44 0-26-19-45t-45-19q-160 0-272 112t-112 272 112 272 272 112zM149 298.667q27 0 46 19t19 45-19 45-46 19-45-19-18-45 18-45 45-19zM277 468.667q27 0 46 19t19 46-19 45-46 18-45-18-18-45 18-46 45-19zM491 468.667q27 0 45 19t18 46-18 45-45 18-46-18-19-45 19-46 46-19zM619 298.667q27 0 45 19t18 45-18 45-45 19-46-19-19-45 19-45 46-19z" />
<glyph unicode="&#xf1a5;" glyph-name="letter-p" horiz-adv-x="554" d="M298 682.667q106 0 181-75t75-181-75-181-181-75h-128v-256h-170v768h298zM308 340.667q34 0 59 25t25 61-25 61-59 25h-138v-172h138z" />
<glyph unicode="&#xf1a6;" glyph-name="details-person" horiz-adv-x="768" d="M682 724.667q36 0 61-25t25-59v-598q0-36-25-61t-61-25h-170l-128-128-128 128h-170q-36 0-61 25t-25 61v598q0 34 25 59t61 25h596zM384 584.667q-48 0-82-34t-34-82 34-81 82-33 82 33 34 81-34 82-82 34zM640 128.667v38q0 40-47 71t-105 46-104 15-104-15-105-46-47-71v-38h512z" />
<glyph unicode="&#xf1a7;" glyph-name="details-objection" horiz-adv-x="768" d="M682 724.667q36 0 61-25t25-59v-598q0-36-25-61t-61-25h-170l-128-128-128 128h-170q-36 0-61 25t-25 61v598q0 34 25 59t61 25h596zM464 260.667l176 80-176 80-80 176-80-176-176-80 176-80 80-176z" />
<glyph unicode="&#xf1a8;" glyph-name="location" horiz-adv-x="598" d="M554 468.667q0-54-26-122t-64-126-75-110-63-80l-28-30q-10 10-27 30t-61 78-78 113-62 124-28 123q0 106 75 181t181 75 181-75 75-181zM214 469.667q0-35 25-60t60-25 60 25 25 60-25 60-60 25-60-25-25-60zM0-43.333h598v-84h-598v84z" />
<glyph unicode="&#xf1a9;" glyph-name="details-unknown" horiz-adv-x="768" d="M682 724.667q36 0 61-25t25-59v-598q0-36-25-61t-61-25h-170l-128-128-128 128h-170q-36 0-61 25t-25 61v598q0 34 25 59t61 25h596zM426 42.667v86h-84v-86h84zM514 372.667q40 40 40 96 0 72-50 122t-120 50-120-50-50-122h84q0 36 25 61t61 25 61-25 25-61q0-34-26-60l-52-54q-50-50-50-120v-22h84q0 44 12 69t38 53z" />
<glyph unicode="&#xf1aa;" glyph-name="location-none" horiz-adv-x="768" d="M426 532.667q-46 0-78-36l-136 136q88 92 214 92 124 0 212-87t88-211q0-96-74-234l-154 156q36 32 36 78 0 44-32 75t-76 31zM614 124.667l154-156-54-54-144 142q-32-46-68-93t-56-69l-20-22q-12 12-32 36t-71 93-91 134-72 147-32 144q0 32 8 66l-136 136 54 54 362-362z" />
<glyph unicode="&#xf1ab;" glyph-name="location-pin" horiz-adv-x="598" d="M298 724.667q124 0 212-87t88-211q0-62-31-143t-75-150-88-130-74-97l-32-34q-12 12-32 36t-71 93-91 134-72 147-32 144q0 124 87 211t211 87zM298 320.667q44 0 76 31t32 75-32 75-76 31-75-31-31-75 31-75 75-31z" />
<glyph unicode="&#xf1ac;" glyph-name="pizza" horiz-adv-x="768" d="M384 724.667q112 0 211-45t173-125l-384-682-384 682q72 80 172 125t212 45zM170 511.667q0-35 25-60t60-25 60 25 25 60-25 60-60 25-60-25-25-60zM383 170.667q35 0 60 25t25 60-25 60-60 25-60-25-25-60 25-60 60-25z" />
<glyph unicode="&#xf1ad;" glyph-name="band-aid" horiz-adv-x="856" d="M672 298.667l172-170q12-14 12-31t-12-29l-186-186q-12-12-30-12t-30 12l-170 170-170-170q-12-12-30-12t-30 12l-186 186q-12 12-12 29t12 31l170 170-170 168q-12 14-12 31t12 31l186 184q12 12 29 12t31-12l170-170 170 170q12 12 30 12t30-12l184-184q14-14 14-31t-14-31zM428 426.667q-18 0-30-13t-12-30 12-30 30-13 31 13 13 30-13 30-31 13zM228 342.667l154 156-154 154-156-156zM343 256.667q17 0 30 12t13 30-13 30-30 12-30-12-13-30 13-30 30-12zM428 170.667q18 0 31 13t13 30-13 30-31 13-30-13-12-30 12-30 30-13zM514 340.667q-18 0-30-12t-12-30 12-30 30-12 30 12 12 30-12 30-30 12zM628-57.333l154 156-154 154-156-156z" />
<glyph unicode="&#xf1ae;" glyph-name="power-settings" horiz-adv-x="682" d="M128-213.333v86h86v-86h-86zM298-213.333v86h86v-86h-86zM384 724.667v-426h-86v426h86zM536 620.667q68-46 107-120t39-160q0-140-100-240t-241-100-241 100-100 240q0 86 39 160t107 120l62-60q-56-36-89-94t-33-126q0-106 75-181t181-75 181 75 75 181q0 68-34 126t-90 92zM470-213.333v86h84v-86h-84z" />
<glyph unicode="&#xf1af;" glyph-name="power" horiz-adv-x="768" d="M426 682.667v-426h-84v426h84zM632 590.667q136-116 136-292 0-160-112-272t-272-112-272 112-112 272q0 176 136 292l60-60q-110-90-110-232 0-124 87-211t211-87 211 87 87 211q0 142-110 230z" />
<glyph unicode="&#xf1b0;" glyph-name="printer" d="M726 468.667q52 0 90-37t38-91v-256h-172v-170h-512v170h-170v256q0 54 37 91t91 37h598zM598 0.667v212h-342v-212h342zM725 298.667q17 0 30 13t13 30-13 30-30 13-30-13-13-30 13-30 30-13zM682 682.667v-170h-512v170h512z" />
<glyph unicode="&#xf1b1;" glyph-name="puzzle" horiz-adv-x="896" d="M790 340.667q44 0 75-31t31-75-31-75-75-31h-64v-172q0-34-25-59t-61-25h-162v64q0 48-34 81t-82 33-81-33-33-81v-64h-162q-36 0-61 25t-25 59v162h64q48 0 82 34t34 82-34 82-82 34h-64v162q0 34 25 59t61 25h170v64q0 44 31 76t75 32 76-32 32-76v-64h170q36 0 61-25t25-59v-172h64z" />
<glyph unicode="&#xf1b2;" glyph-name="quotes" horiz-adv-x="598" d="M42 84.667l86 172h-128v256h256v-256l-86-172h-128zM384 84.667l86 172h-128v256h256v-256l-86-172h-128z" />
<glyph unicode="&#xf1b3;" glyph-name="train" horiz-adv-x="682" d="M0 148.667v448q0 54 25 90t76 53 106 23 134 6 134-6 106-23 76-53 25-90v-448q0-62-43-105t-105-43l64-64v-22h-512v22l64 64q-62 0-106 43t-44 105zM341 84.667q35 0 60 25t25 61-25 61-60 25-60-25-25-61 25-61 60-25zM598 384.667v212h-512v-212h512z" />
<glyph unicode="&#xf1b4;" glyph-name="tear-away" horiz-adv-x="768" d="M640 84.667v86h-512v-86h512zM640 256.667v84h-512v-84h512zM640 426.667v86h-512v-86h512zM0-127.333v852l64-64 64 64 64-64 64 64 64-64 64 64 64-64 64 64 64-64 64 64 64-64 64 64v-852l-64 64-64-64-64 64-64-64-64 64-64-64-64 64-64-64-64 64-64-64-64 64z" />
<glyph unicode="&#xf1b5;" glyph-name="reset" horiz-adv-x="938" d="M768 468.667l170-170h-128q0-142-100-242t-240-100q-98 0-182 54l62 62q54-30 120-30 106 0 181 75t75 181h-128zM214 298.667h128l-172-170-170 170h128q0 142 100 242t242 100q98 0 182-54l-64-62q-54 30-118 30-106 0-181-75t-75-181z" />
<glyph unicode="&#xf1b6;" glyph-name="reset-error" horiz-adv-x="768" d="M0 298.667q0 118 72 210t184 120v-88q-76-28-123-94t-47-148q0-106 74-180l96 94v-256h-256l100 102q-100 100-100 240zM342 84.667v86h84v-86h-84zM768 640.667l-100-102q100-100 100-240 0-118-72-210t-184-120v88q76 28 123 94t47 148q0 106-74 180l-96-94v256h256zM342 256.667v256h84v-256h-84z" />
<glyph unicode="&#xf1b7;" glyph-name="reset-none" horiz-adv-x="732" d="M304 540.667q-10-4-32-16l-62 64q44 28 94 40v-88zM0 580.667l54 54 670-672-54-54-100 100q-44-28-96-40v88q14 6 34 16l-346 344q-28-56-28-118 0-106 76-180l94 94v-256h-256l102 102q-102 100-102 240 0 98 52 180zM732 640.667l-102-102q102-100 102-240 0-98-52-180l-64 62q30 56 30 118 0 106-76 180l-94-94v256h256z" />
<glyph unicode="&#xf1b8;" glyph-name="reset-alternate" horiz-adv-x="682" d="M342 640.667q140 0 240-100t100-242q0-98-52-182l-62 62q30 56 30 120 0 106-75 181t-181 75v-128l-172 170 172 172v-128zM342 42.667v128l170-170-170-172v128q-142 0-242 100t-100 242q0 98 52 182l64-62q-30-56-30-120 0-106 75-181t181-75z" />
<glyph unicode="&#xf1b9;" glyph-name="reset-refresh" horiz-adv-x="682" d="M342 554.667q-106 0-181-75t-75-181q0-64 30-120l-64-62q-52 84-52 182 0 142 100 242t242 100v128l170-172-170-170v128zM630 480.667q52-84 52-182 0-142-100-242t-240-100v-128l-172 172 172 170v-128q106 0 181 75t75 181q0 62-30 120z" />
<glyph unicode="&#xf1ba;" glyph-name="roller" horiz-adv-x="726" d="M598 640.667h128v-342h-342v-384q0-18-13-30t-29-12h-86q-18 0-30 12t-12 30v470h426v170h-42v-42q0-18-13-31t-31-13h-512q-16 0-29 13t-13 31v170q0 18 13 30t29 12h512q18 0 31-12t13-30v-42z" />
<glyph unicode="&#xf1bb;" glyph-name="scale" horiz-adv-x="938" d="M854 554.667q34 0 59-25t25-61v-340q0-36-25-61t-59-25h-768q-36 0-61 25t-25 61v340q0 36 25 61t61 25h768zM854 128.667v340h-86v-170h-86v170h-84v-170h-86v170h-86v-170h-84v170h-86v-170h-86v170h-84v-340h768z" />
<glyph unicode="&#xf1bc;" glyph-name="scissors" d="M326 484.667l528-528v-42h-128l-300 298-100-100q16-34 16-70 0-70-50-120t-121-50-121 50-50 120 50 120 120 50q38 0 70-14l102 100-102 100q-32-14-70-14-70 0-120 50t-50 120 50 120 121 50 121-50 50-120q0-36-16-70zM171 468.667q35 0 60 25t25 61-25 61-60 25-60-25-25-61 25-61 60-25zM171-43.333q35 0 60 25t25 61-25 61-60 25-60-25-25-61 25-61 60-25zM427 276.667q21 0 21 22t-21 22-21-22 21-22zM726 682.667h128v-42l-300-300-84 86z" />
<glyph unicode="&#xf1bd;" glyph-name="rotate-lock" horiz-adv-x="968" d="M950 266.667q18-20 18-46t-18-46l-272-270q-18-20-45-20t-45 20l-514 512q-18 18-18 45t18 45l272 272q18 18 45 18t45-18l106-104-62-60-88 88-242-240 482-484 242 242-94 94 60 60zM318-63.333l58 56 162-162-28-2q-200 0-347 136t-163 334h64q12-120 80-216t174-146zM640 426.667q-18 0-30 13t-12 29v172q0 16 12 29t30 13v22q0 44 31 75t75 31 76-31 32-75v-22q16 0 29-13t13-29v-172q0-16-13-29t-29-13h-214zM674 704.667v-22h146v22q0 30-22 51t-52 21-51-21-21-51z" />
<glyph unicode="&#xf1be;" glyph-name="rotate" horiz-adv-x="1020" d="M702 702.667l-58-56-162 162 28 2q200 0 347-136t163-334h-64q-12 120-81 216t-173 146zM434 736.667l514-514q18-18 18-45t-18-45l-272-272q-18-18-45-18t-45 18l-514 514q-18 18-18 45t18 45l272 272q18 18 45 18t45-18zM630-93.333l272 272-512 512-272-272zM318-105.333l58 56 162-162-28-2q-200 0-347 136t-163 334h64q12-120 80-216t174-146z" />
<glyph unicode="&#xf1bf;" glyph-name="search-again" d="M640 212.667l214-212-64-64-214 214v32l-12 12q-78-66-180-66-76 0-140 38l62 62q38-16 78-16 80 0 136 57t56 136-56 135-136 56-136-56-56-136h150l-178-170-164 170h108q0 114 81 196t195 82q116 0 197-81t81-197q0-102-68-180l12-12h34z" />
<glyph unicode="&#xf1c0;" glyph-name="search-document" horiz-adv-x="682" d="M682-25.333l-162 164q34 54 34 118 0 88-62 150t-150 62-151-62-63-150 63-151 151-63q62 0 118 36l188-190q-24-16-50-16h-514q-34 0-59 25t-25 59v684q0 34 25 59t61 25h340l256-256v-494zM214 255.667q0 53 37 91t90 38 91-38 38-91-38-90-91-37-90 37-37 90z" />
<glyph unicode="&#xf1c1;" glyph-name="search-object" d="M406 426.667q44 0 75-31t31-75-31-76-75-32-76 32-32 76 32 75 76 31zM768 640.667q36 0 61-25t25-61v-512q0-36-25-61t-61-25h-682q-36 0-61 25t-25 61v512q0 36 25 61t61 25h682zM632 34.667l60 60-124 124q30 46 30 102 0 80-56 136t-136 56-136-56-56-136 56-136 134-56q56 0 102 30z" />
<glyph unicode="&#xf1c2;" glyph-name="search-reset" horiz-adv-x="746" d="M298 554.667q-76 0-135-49t-73-121h-86q16 108 99 182t195 74q124 0 212-88l88 88v-256h-256l108 108q-64 62-152 62zM540 164.667l206-208-64-62-206 206q-80-58-178-58-124 0-210 88l-88-88v256h256l-108-108q62-62 150-62 78 0 136 48t74 122h86q-10-74-54-134z" />
<glyph unicode="&#xf1c3;" glyph-name="search" horiz-adv-x="746" d="M534 212.667l212-212-64-64-212 212v34l-12 12q-78-66-180-66-116 0-197 81t-81 196 81 196 196 81 196-81 81-197q0-102-66-180l12-12h34zM278 212.667q80 0 136 56t56 136-56 136-136 56-136-56-56-136 56-136 136-56z" />
<glyph unicode="&#xf1c4;" glyph-name="chair" d="M86 42.667v128h682v-256h-128v128h-426v-128h-128v128zM726 384.667h128v-128h-128v128zM0 384.667h128v-128h-128v128zM640 256.667h-426v340q0 36 25 61t59 25h256q36 0 61-25t25-61v-340z" />
<glyph unicode="&#xf1c5;" glyph-name="settings-object" horiz-adv-x="768" d="M384 384.667q36 0 61-25t25-61-25-61-61-25-61 25-25 61 25 61 61 25zM682 682.667q36 0 61-25t25-61v-596q0-36-25-61t-61-25h-596q-36 0-61 25t-25 61v596q0 36 25 61t61 25h596zM608 298.667q0 14-2 30l64 48q8 10 2 20l-60 104q-6 10-18 6l-74-30q-24 18-50 30l-12 78q-2 12-14 12h-120q-12 0-14-12l-12-80q-28-10-50-28l-74 30q-12 4-18-8l-60-102q-6-12 2-20l64-48q-2-16-2-30t2-30l-64-48q-8-10-2-20l60-104q6-10 18-6l74 30q24-18 50-30l12-78q2-12 14-12h120q12 0 14 12l12 80q28 10 50 28l74-30q12-4 18 8l60 102q6 12-2 20l-64 48q2 16 2 30z" />
<glyph unicode="&#xf1c6;" glyph-name="settings-gear" horiz-adv-x="830" d="M732 256.667l90-70q14-12 6-28l-86-148q-8-16-26-8l-106 42q-36-26-72-42l-16-112q-2-18-22-18h-170q-18 0-22 18l-16 112q-38 16-72 42l-106-42q-18-6-26 8l-86 148q-8 16 6 28l90 70q-2 24-2 42t2 42l-90 70q-14 12-6 28l86 148q10 16 26 8l106-42q36 26 72 42l16 112q4 18 22 18h170q20 0 22-18l16-112q38-16 72-42l106 42q18 6 26-8l86-148q8-16-6-28l-90-70q4-24 4-42t-4-42zM415 148.667q61 0 105 44t44 106-44 106-105 44-105-44-44-106 44-106 105-44z" />
<glyph unicode="&#xf1c7;" glyph-name="security-verified" horiz-adv-x="768" d="M384 768.667l384-172v-256q0-178-110-325t-274-187q-164 40-274 187t-110 325v256zM298 84.667l342 342-60 60-282-280-110 110-60-60z" />
<glyph unicode="&#xf1c8;" glyph-name="security" horiz-adv-x="768" d="M384 768.667l384-172v-256q0-178-110-325t-274-187q-164 40-274 187t-110 325v256zM384 298.667v376l-298-132v-244h298v-382q118 38 200 144t98 238h-298z" />
<glyph unicode="&#xf1c9;" glyph-name="basket" horiz-adv-x="938" d="M692 426.667h204q18 0 30-13t12-29v-12l-108-396q-8-26-31-44t-53-18h-554q-30 0-52 18t-30 44l-108 396q-2 4-2 12 0 16 13 29t29 13h206l186 280q12 18 35 18t35-18zM342 426.667h256l-128 188zM469 84.667q35 0 60 25t25 61-25 61-60 25-60-25-25-61 25-61 60-25z" />
<glyph unicode="&#xf1ca;" glyph-name="cart-add" horiz-adv-x="860" d="M426 426.667v128h-128v86h128v128h86v-128h128v-86h-128v-128h-86zM256 42.667q36 0 61-25t25-60-25-60-61-25-60 25-24 60 24 60 60 25zM683 42.667q35 0 60-25t25-60-25-60-60-25-60 25-25 60 25 60 60 25zM264 180.667q0-10 10-10h494v-86h-512q-36 0-61 25t-25 61q0 22 12 40l56 106-152 324h-86v84h140l40-84 40-86 96-202 6-12h298l118 214 48 86 74-42-164-298q-24-44-76-44h-318l-38-70v-6z" />
<glyph unicode="&#xf1cb;" glyph-name="cart" d="M256 42.667q36 0 61-25t25-60-25-60-61-25-60 25-24 60 24 60 60 25zM0 724.667h140l40-84h630q18 0 31-13t13-31q0-10-6-20l-152-276q-24-44-76-44h-318l-38-70v-6q0-10 10-10h494v-86h-512q-36 0-61 25t-25 61q0 22 12 40l56 106-152 324h-86v84zM683 42.667q35 0 60-25t25-60-25-60-60-25-60 25-25 60 25 60 60 25z" />
<glyph unicode="&#xf1cc;" glyph-name="go-to" horiz-adv-x="768" d="M302 144.667l110 112h-412v84h412l-110 112 60 60 214-214-214-214zM682 682.667q36 0 61-25t25-61v-596q0-36-25-61t-61-25h-596q-36 0-61 25t-25 61v170h86v-170h596v596h-596v-170h-86v170q0 36 25 61t61 25h596z" />
<glyph unicode="&#xf1cd;" glyph-name="sort-ascending" horiz-adv-x="768" d="M0 554.667h256v-86h-256v86zM0 42.667v86h768v-86h-768zM0 340.667h512v-84h-512v84z" />
<glyph unicode="&#xf1ce;" glyph-name="sort-descending" horiz-adv-x="768" d="M0 42.667v86h256v-86h-256zM0 554.667h768v-86h-768v86zM0 256.667v84h512v-84h-512z" />
<glyph unicode="&#xf1cf;" glyph-name="sort-az" horiz-adv-x="834" d="M564 642.667h-294l148 146zM270-45.333h294l-146-146zM140 228.667h162l-82 222zM186 544.667h70l186-492h-76l-40 106h-212l-38-106h-76zM570 120.667h264v-68h-368v56l256 366h-254v70h358v-54z" />
<glyph unicode="&#xf1d0;" glyph-name="sort-za" horiz-adv-x="834" d="M564 642.667h-294l148 146zM270-45.333h294l-146-146zM532 228.667h162l-80 222zM580 544.667h68l186-492h-76l-38 106h-212l-40-106h-76zM104 120.667h264v-68h-368v56l256 366h-254v70h358v-54z" />
<glyph unicode="&#xf1d1;" glyph-name="validate" horiz-adv-x="876" d="M426 128.667l-48 128h-242l-46-128h-90l218 554h80l218-554h-90zM170 340.667h176l-88 236zM816 316.667l60-60-404-406-218 218 60 60 158-158z" />
<glyph unicode="&#xf1d2;" glyph-name="storage" d="M0-43.333v172h854v-172h-854zM86 84.667v-84h84v84h-84zM0 640.667h854v-172h-854v172zM170 512.667v84h-84v-84h84zM0 212.667v172h854v-172h-854zM86 340.667v-84h84v84h-84z" />
<glyph unicode="&#xf1d3;" glyph-name="store-24" d="M726 512.667h128v-556h-342v172h-170v-172h-342v556h128v128h598v-128zM384 384.667v128h-128v-44h86v-42h-86v-128h128v42h-86v44h86zM598 298.667v214h-44v-86h-42v86h-42v-128h84v-86h44z" />
<glyph unicode="&#xf1d4;" glyph-name="store" horiz-adv-x="768" d="M726 640.667v-86h-684v86h684zM768 212.667h-42v-256h-86v256h-170v-256h-428v256h-42v86l42 214h684l42-214v-86zM384 42.667v170h-256v-170h256z" />
<glyph unicode="&#xf1d5;" glyph-name="metro" horiz-adv-x="682" d="M341 724.667q79 0 134-6t106-23 76-52 25-89v-406q0-62-43-105t-105-43l64-64v-22h-512v22l64 64q-62 0-106 43t-44 105v406q0 54 25 89t76 52 106 23 134 6zM149 84.667q27 0 46 19t19 46-19 45-46 18-45-18-18-45 18-46 45-19zM298 340.667v214h-212v-214h212zM533 84.667q27 0 46 19t19 46-19 45-46 18-45-18-18-45 18-46 45-19zM598 340.667v214h-214v-214h214z" />
<glyph unicode="&#xf1d6;" glyph-name="sun" horiz-adv-x="938" d="M246 604.667l-60-60-78 76 60 60zM128 362.667v-86h-128v86h128zM512 786.667v-126h-86v126h86zM830 620.667l-76-76-60 60 76 76zM692 36.667l60 58 78-76-60-60zM810 362.667h128v-86h-128v86zM470 576.667q106 0 181-75t75-181-75-181-181-75-181 75-75 181 75 181 181 75zM426-147.333v126h86v-126h-86zM108 18.667l78 78 60-60-78-78z" />
<glyph unicode="&#xf1d7;" glyph-name="tab-unselected" horiz-adv-x="938" d="M0 426.667v86h86v-86h-86zM0 256.667v84h86v-84h-86zM0 596.667q0 36 25 61t61 25v-86h-86zM342-85.333v86h84v-86h-84zM0 84.667v86h86v-86h-86zM86-85.333q-36 0-61 25t-25 61h86v-86zM854 682.667q34 0 59-25t25-61v-170h-426v256h342zM854 84.667v86h84v-86h-84zM342 596.667v86h84v-86h-84zM170-85.333v86h86v-86h-86zM170 596.667v86h86v-86h-86zM854-85.333v86h84q0-36-25-61t-59-25zM854 256.667v84h84v-84h-84zM512-85.333v86h86v-86h-86zM682-85.333v86h86v-86h-86z" />
<glyph unicode="&#xf1d8;" glyph-name="tab-selected" horiz-adv-x="938" d="M854 682.667q34 0 59-25t25-61v-596q0-36-25-61t-59-25h-768q-36 0-61 25t-25 61v596q0 36 25 61t61 25h768zM854 0.667v426h-342v170h-426v-596h768z" />
<glyph unicode="&#xf1d9;" glyph-name="remark-close" d="M938 682.667q36 0 61-25t25-61v-596q0-36-25-61t-61-25h-640q-42 0-68 38l-230 346 230 346q26 38 68 38h640zM810 144.667l-152 154 152 154-60 60-152-154-154 154-60-60 154-154-154-154 60-60 154 154 152-154z" />
<glyph unicode="&#xf1da;" glyph-name="remark-details" d="M938 682.667q36 0 61-25t25-61v-596q0-36-25-61t-61-25h-636q-46 0-72 38l-230 346 230 346q26 38 68 38h640zM384 234.667q26 0 45 19t19 45-19 45-45 19-45-19-19-45 19-45 45-19zM597 234.667q27 0 46 19t19 45-19 45-46 19-45-19-18-45 18-45 45-19zM811 234.667q27 0 45 19t18 45-18 45-45 19-46-19-19-45 19-45 46-19z" />
<glyph unicode="&#xf1db;" glyph-name="remark" d="M938 682.667q36 0 61-25t25-61v-596q0-36-25-61t-61-25h-640q-42 0-68 38l-230 346 230 346q26 38 68 38h640z" />
<glyph unicode="&#xf1dc;" glyph-name="vote-down" horiz-adv-x="938" d="M598 682.667q34 0 59-25t25-61v-426q0-36-24-60l-282-282-44 46q-20 18-20 44l2 14 40 196h-268q-36 0-61 25t-25 59v86q0 16 6 32l128 300q22 52 80 52h384zM768 682.667h170v-512h-170v512z" />
<glyph unicode="&#xf1dd;" glyph-name="vote" d="M512 554.667v-54q0-12-4-22l-98-226q-16-40-58-40h-288q-26 0-45 19t-19 45v278q0 26 18 46l212 210 34-34q14-14 14-34l-2-10-28-136h222q16 0 29-12t13-30zM960 384.667q26 0 45-19t19-45v-278q0-26-18-46l-212-210-34 34q-14 14-14 34l2 10 28 136h-222q-16 0-29 12t-13 30v54q0 12 4 22l98 226q16 40 58 40h288z" />
<glyph unicode="&#xf1de;" glyph-name="vote-up" horiz-adv-x="938" d="M0-85.333v512h170v-512h-170zM938 384.667v-86q0-16-6-32l-128-300q-22-52-78-52h-384q-36 0-61 25t-25 61v426q0 36 26 60l280 282 46-46q18-18 18-44l-2-14-40-196h270q34 0 59-25t25-59z" />
<glyph unicode="&#xf1df;" glyph-name="ticket" d="M768 298.667q0-36 25-61t61-25v-170q0-36-25-61t-61-25h-682q-36 0-61 25t-25 61v170q36 0 61 25t25 61-25 61-61 25v170q0 36 25 61t61 25h682q36 0 61-25t25-61v-170q-36 0-61-25t-25-61zM580 94.667l-48 174 142 116-182 10-66 168-66-168-180-10 140-116-46-174 152 98z" />
<glyph unicode="&#xf1e0;" glyph-name="motion" horiz-adv-x="938" d="M597 640.667q141 0 241-100t100-242-100-242-241-100-241 100-100 242 100 242 241 100zM598 42.667q106 0 181 75t75 181-75 181-181 75-181-75-75-181 75-181 181-75zM86 298.667q0-82 47-148t123-94v-88q-112 28-184 120t-72 210 72 210 184 120v-88q-76-28-123-94t-47-148z" />
<glyph unicode="&#xf1e1;" glyph-name="wind" horiz-adv-x="938" d="M470 298.667q0 96 69 165t165 69 165-69 69-165h-468zM470 298.667q0-96-70-165t-166-69-165 69-69 165h470zM470 298.667q-96 0-166 69t-70 165 70 166 166 70v-470zM470 298.667q96 0 165-69t69-165-69-166-165-70v470z" />
<glyph unicode="&#xf1e2;" glyph-name="traffic" horiz-adv-x="682" d="M682 384.667q0-60-36-105t-92-61v-48h128q0-58-36-104t-92-60v-50q0-16-12-29t-30-13h-342q-16 0-29 13t-13 29v50q-56 14-92 60t-36 104h128v48q-56 16-92 61t-36 105h128v48q-56 14-92 60t-36 104h128v44q0 16 13 29t29 13h342q18 0 30-13t12-29v-44h128q0-58-36-104t-92-60v-48h128zM341 0.667q35 0 60 25t25 60-25 60-60 25-60-25-25-60 25-60 60-25zM341 212.667q35 0 60 25t25 61-25 61-60 25-60-25-25-61 25-61 60-25zM341 426.667q35 0 60 25t25 60-25 60-60 25-60-25-25-60 25-60 60-25z" />
<glyph unicode="&#xf1e3;" glyph-name="translate" horiz-adv-x="938" d="M506 168.667l-32-88-132 132-214-212-60 60 216 214q-80 88-126 194h84q40-78 100-142 90 100 134 228h-476v86h298v84h86v-84h298v-86h-124q-48-156-158-278l-2-2zM746 384.667l192-512h-84l-48 128h-204l-48-128h-84l192 512h84zM634 84.667h140l-70 186z" />
<glyph unicode="&#xf1e4;" glyph-name="arrow-outline-down" d="M426 70.667l274 438h-546zM426-89.333l-426 682h854z" />
<glyph unicode="&#xf1e5;" glyph-name="arrow-outline-up" d="M426 478.667l-272-436h546zM426 640.667l428-684h-854z" />
<glyph unicode="&#xf1e6;" glyph-name="truck" horiz-adv-x="938" d="M810 468.667l128-170v-214h-84q0-52-38-90t-91-38-90 38-37 90h-256q0-52-38-90t-91-38-90 38-37 90h-86v470q0 36 25 61t61 25h596v-172h128zM213 20.667q27 0 46 19t19 46-19 45-46 18-45-18-18-45 18-46 45-19zM790 404.667h-108v-106h190zM725 20.667q27 0 46 19t19 46-19 45-46 18-45-18-18-45 18-46 45-19z" />
<glyph unicode="&#xf1e7;" glyph-name="right" d="M840 328.667q14-12 14-30t-14-30l-384-384q-12-12-30-12t-30 12l-384 384q-12 12-12 30t12 30l384 384q12 12 30 12t30-12zM512 192.667l150 148-150 150v-106h-214q-18 0-30-13t-12-31v-170h86v128h170v-106z" />
<glyph unicode="&#xf1e8;" glyph-name="frame" d="M86 640.667v-300h-86v300q0 34 25 59t61 25h298v-84h-298zM342 256.667l126-158 86 114 128-170h-512zM640 447.667q0-27-19-45t-45-18-45 18-19 45 19 46 45 19 45-19 19-46zM768 724.667q36 0 61-25t25-59v-300h-86v300h-298v84h298zM768-43.333v300h86v-300q0-34-25-59t-61-25h-298v84h298zM86 256.667v-300h298v-84h-298q-36 0-61 25t-25 59v300h86z" />
<glyph unicode="&#xf1e9;" glyph-name="washer" horiz-adv-x="682" d="M220 92.667l242 242q50-50 50-121t-50-121-121-50-121 50zM598 724.667q34 0 59-25t25-59v-684q0-34-25-59t-59-25h-512q-36 0-61 25t-25 59v684q0 34 25 59t61 25h512zM256 640.667q-18 0-30-13t-12-30 12-30 30-13 30 13 12 30-12 30-30 13zM128 640.667q-18 0-30-13t-12-30 12-30 30-13 30 13 12 30-12 30-30 13zM342-43.333q106 0 181 75t75 181-75 181-181 75-181-75-75-181 75-181 181-75z" />
<glyph unicode="&#xf1ea;" glyph-name="window-max" horiz-adv-x="682" d="M0 640.667h682v-684h-682v684zM86 468.667v-426h512v426h-512z" />
<glyph unicode="&#xf1eb;" glyph-name="window-hide" horiz-adv-x="682" d="M682-43.333h-682v172h682v-172z" />
<glyph unicode="&#xf1ec;" glyph-name="window-min" horiz-adv-x="682" d="M0 468.667h170v172h512v-512h-170v-172h-512v512zM512 468.667v-256h86v342h-342v-86h256zM86 298.667v-256h340v256h-340z" />
<glyph unicode="&#xf1ed;" glyph-name="wrench" horiz-adv-x="940" d="M928 0.667q12-10 12-29t-16-31l-98-98q-14-14-31-14t-29 14l-388 388q-74-30-155-13t-141 77q-62 64-78 151t24 165l188-184 128 128-184 184q76 36 164 21t152-77q60-60 77-141t-13-153z" />
<glyph unicode="&#xf1ee;" glyph-name="zoom-in" horiz-adv-x="746" d="M534 212.667l212-212-64-64-212 212v34l-12 12q-78-66-180-66-116 0-197 81t-81 196 81 196 196 81 196-81 81-197q0-102-66-180l12-12h34zM278 212.667q80 0 136 56t56 136-56 136-136 56-136-56-56-136 56-136 136-56zM384 384.667h-86v-86h-42v86h-86v42h86v86h42v-86h86v-42z" />
<glyph unicode="&#xf1ef;" glyph-name="zoom-out" horiz-adv-x="746" d="M534 212.667l212-212-64-64-212 212v34l-12 12q-78-66-180-66-116 0-197 81t-81 196 81 196 196 81 196-81 81-197q0-102-66-180l12-12h34zM278 212.667q80 0 136 56t56 136-56 136-136 56-136-56-56-136 56-136 136-56zM170 426.667h214v-42h-214v42z" />
<glyph unicode="&#xf1f0;" glyph-name="alert-outline" d="M384 170.667h86v-86h-86v86zM384 512.667h86v-256h-86v256zM427 724.667q177 0 302-125t125-301-125-301-302-125-302 125-125 301 125 301 302 125zM427-43.333q141 0 241 100t100 242-100 242-241 100-241-100-100-242 100-242 241-100z" />
<glyph unicode="&#xf1f1;" glyph-name="alert-solid" d="M427 724.667q177 0 302-125t125-301-125-301-302-125-302 125-125 301 125 301 302 125zM470 84.667v86h-86v-86h86zM470 256.667v256h-86v-256h86z" />
<glyph unicode="&#xf1f2;" glyph-name="alert-hex" horiz-adv-x="768" d="M544 682.667l224-224v-320l-224-224h-320l-224 224v320l224 224h320zM384 72.667q24 0 40 16t16 39-16 39-40 16-40-16-16-39 16-39 40-16zM426 256.667v256h-84v-256h84z" />
<glyph unicode="&#xf1f3;" glyph-name="alert-star" horiz-adv-x="938" d="M938 298.667l-104-118 16-158-154-34-82-136-144 62-146-62-80 134-154 36 14 158-104 118 104 120-14 156 154 34 80 136 146-62 144 62 82-136 154-34-16-158zM512 84.667v86h-86v-86h86zM512 256.667v256h-86v-256h86z" />
<glyph unicode="&#xf1f4;" glyph-name="alert-triangle" horiz-adv-x="938" d="M0-85.333l470 810 468-810h-938zM512 42.667v86h-86v-86h86zM512 212.667v172h-86v-172h86z" />
<glyph unicode="&#xf1f5;" glyph-name="doubt-outline" d="M384 42.667v86h86v-86h-86zM427 724.667q177 0 302-125t125-301-125-301-302-125-302 125-125 301 125 301 302 125zM427-43.333q141 0 241 100t100 242-100 242-241 100-241-100-100-242 100-242 241-100zM427 554.667q71 0 121-50t50-120q0-36-20-65t-44-46-44-44-20-59h-86q0 46 20 79t44 48 44 37 20 50q0 34-25 59t-60 25-60-25-25-59h-86q0 70 50 120t121 50z" />
<glyph unicode="&#xf1f6;" glyph-name="doubt-solid" d="M427 724.667q177 0 302-125t125-301-125-301-302-125-302 125-125 301 125 301 302 125zM470 0.667v84h-86v-84h86zM558 330.667q40 40 40 96 0 70-50 120t-121 50-121-50-50-120h86q0 36 25 61t60 25 60-25 25-61-26-60l-52-54q-50-50-50-120v-22h86q0 44 11 69t39 51z" />
<glyph unicode="&#xf1f7;" glyph-name="info-outline" d="M384 84.667v256h86v-256h-86zM427 724.667q177 0 302-125t125-301-125-301-302-125-302 125-125 301 125 301 302 125zM427-43.333q141 0 241 100t100 242-100 242-241 100-241-100-100-242 100-242 241-100zM384 426.667v86h86v-86h-86z" />
<glyph unicode="&#xf1f8;" glyph-name="info-solid" d="M427 724.667q177 0 302-125t125-301-125-301-302-125-302 125-125 301 125 301 302 125zM470 84.667v256h-86v-256h86zM470 426.667v86h-86v-86h86z" />
<glyph unicode="&#xf1f9;" glyph-name="notification" horiz-adv-x="894" d="M236 658.667q-66-48-106-120t-44-154h-86q4 100 51 188t125 146zM808 384.667q-4 82-45 154t-107 120l62 60q78-58 124-146t52-188h-86zM724 362.667v-234l86-86v-42h-726v42l86 86v234q0 98 60 173t152 97v28q0 28 19 46t46 18 45-18 18-46v-28q94-22 154-97t60-173zM446-127.333q-34 0-59 25t-25 59h170q0-16-6-32-18-42-62-50-8-2-18-2z" />
<glyph unicode="&#xf1fa;" glyph-name="notification-add" horiz-adv-x="768" d="M300-85.333h168q0-36-24-61t-60-25-60 25-24 61zM678 92.667l90-90v-46h-768v46l90 90v248q0 104 64 183t162 103v30q0 28 20 48t48 20 48-20 20-48v-30q98-24 162-103t64-183v-248zM554 254.667v86h-128v128h-84v-128h-128v-86h128v-128h84v128h128z" />
<glyph unicode="&#xf1fb;" glyph-name="notification-outline" horiz-adv-x="726" d="M363-127.333q-35 0-60 25t-25 59h170q0-34-25-59t-60-25zM640 128.667l86-86v-42h-726v42l86 86v234q0 98 60 173t152 97v28q0 28 19 46t46 18 45-18 18-46v-28q94-22 154-97t60-173v-234zM554 84.667v278q0 80-56 136t-136 56-136-56-56-136v-278h384z" />
<glyph unicode="&#xf1fc;" glyph-name="notifictio-cancel" horiz-adv-x="768" d="M363-127.333q-35 0-60 25t-25 59h170q0-34-25-59t-60-25zM640 362.667v-158l-404 404q34 16 62 24v28q0 28 19 46t46 18 45-18 18-46v-28q94-22 154-97t60-173zM628 0.667h-628v42l86 86v234q0 76 38 142l-124 124 54 54 714-714-54-54z" />
<glyph unicode="&#xf1fd;" glyph-name="notification-sleep" horiz-adv-x="726" d="M363-127.333q-35 0-60 25t-25 59h170q0-34-25-59t-60-25zM640 128.667l86-86v-42h-726v42l86 86v234q0 98 60 173t152 97v28q0 28 19 46t46 18 45-18 18-46v-28q94-22 154-97t60-173v-234zM470 392.667v76h-214v-76h120l-120-146v-76h214v76h-120z" />
<glyph unicode="&#xf1fe;" glyph-name="notifiaction-solid" horiz-adv-x="726" d="M363-127.333q-35 0-60 25t-25 59h170q0-34-25-59t-60-25zM640 128.667l86-86v-42h-726v42l86 86v234q0 98 60 173t152 97v28q0 28 19 46t46 18 45-18 18-46v-28q94-22 154-97t60-173v-234z" />
<glyph unicode="&#xf1ff;" glyph-name="person-add" horiz-adv-x="938" d="M597 298.667q-71 0-121 50t-50 121 50 121 121 50 121-50 50-121-50-121-121-50zM214 384.667h128v-86h-128v-128h-86v128h-128v86h128v128h86v-128zM597 212.667q63 0 139-18t139-59 63-93v-86h-682v86q0 52 63 93t139 59 139 18z" />
<glyph unicode="&#xf200;" glyph-name="person-mail" d="M896 468.667l-128-84-128 84v44l128-86 128 86v-44zM938 682.667q36 0 61-25t25-61v-596q0-36-25-61t-61-25h-852q-36 0-61 25t-25 61v596q0 36 25 61t61 25h852zM341 554.667q-53 0-90-37t-37-91 37-91 90-37 91 37 38 91-38 91-91 37zM598 42.667v42q0 40-48 72t-105 46-104 14-104-14-104-46-47-72v-42h512zM938 298.667v256h-340v-256h340z" />
<glyph unicode="&#xf201;" glyph-name="person-object" horiz-adv-x="768" d="M384 288.667q-40 0-68 28t-28 68 28 68 68 28 68-28 28-68-28-68-68-28zM576 116.667v-32h-384v32q0 44 66 70t126 26 126-26 66-70zM682 682.667q36 0 61-25t25-61v-596q0-36-25-61t-61-25h-596q-36 0-61 25t-25 61v596q0 36 25 61t61 25h596zM682 0.667v596h-596v-596h596z" />
<glyph unicode="&#xf202;" glyph-name="person-call" d="M938 682.667q36 0 61-25t25-61v-596q0-36-25-61t-61-25h-852q-36 0-61 25t-25 61v596q0 36 25 61t61 25h852zM341 554.667q-53 0-90-37t-37-91 37-91 90-37 91 37 38 91-38 91-91 37zM598 42.667v42q0 40-48 72t-105 46-104 14-104-14-104-46-47-72v-42h512zM762 212.667q-16 44-16 86t16 86h70l64 84-84 86q-88-66-118-170-12-44-12-86t12-86q30-104 118-170l84 86-64 84h-70z" />
<glyph unicode="&#xf203;" glyph-name="person-object-solid" horiz-adv-x="768" d="M0 596.667q0 36 25 61t61 25h596q36 0 61-25t25-61v-596q0-36-25-61t-61-25h-596q-36 0-61 25t-25 61v596zM512 426.667q0 54-37 91t-91 37-91-37-37-91 37-91 91-37 91 37 37 91zM128 84.667v-42h512v42q0 40-47 72t-105 46-104 14-104-14-105-46-47-72z" />
<glyph unicode="&#xf204;" glyph-name="person-object-calendar" horiz-adv-x="768" d="M682 682.667q36 0 61-25t25-61v-596q0-36-25-61t-61-25h-596q-36 0-61 25t-25 61v596q0 36 25 61t61 25h42v86h86v-86h340v86h86v-86h42zM384 554.667q-54 0-91-37t-37-91 37-91 91-37 91 37 37 91-37 91-91 37zM640 42.667v42q0 40-47 72t-105 46-104 14-104-14-105-46-47-72v-42h512z" />
<glyph unicode="&#xf205;" glyph-name="person-profile" d="M427 724.667q177 0 302-125t125-301-125-301-302-125-302 125-125 301 125 301 302 125zM427 596.667q-53 0-91-37t-38-90 38-91 91-38 90 38 37 91-37 90-90 37zM427-9.333q79 0 146 37t109 101q0 40-47 71t-104 46-104 15-104-15-104-46-49-71q42-64 110-101t147-37z" />
<glyph unicode="&#xf206;" glyph-name="person-outline" horiz-adv-x="682" d="M341 558.667q-37 0-63-26t-26-63 26-63 63-26 63 26 26 63-26 63-63 26zM342 174.667q-88 0-174-33t-86-57v-46h520v46q0 24-86 57t-174 33zM341 640.667q71 0 121-50t50-121-50-121-121-50-121 50-50 121 50 121 121 50zM341 256.667q63 0 139-18t139-59 63-95v-128h-682v128q0 54 63 95t139 59 139 18z" />
<glyph unicode="&#xf207;" glyph-name="person-solid" horiz-adv-x="682" d="M341 298.667q-71 0-121 50t-50 121 50 121 121 50 121-50 50-121-50-121-121-50zM341 212.667q63 0 139-18t139-59 63-93v-86h-682v86q0 52 63 93t139 59 139 18z" />
<glyph unicode="&#xf208;" glyph-name="person-add-group" d="M342 384.667v-86h-128v-128h-86v128h-128v86h128v128h86v-128h128zM768 340.667q-20 0-38 6 38 56 38 122 0 68-38 122 18 6 38 6 54 0 91-37t37-90-37-91-91-38zM555 340.667q-53 0-91 38t-38 91 38 90 91 37 90-37 37-90-37-91-90-38zM838 248.667q74-12 130-44t56-76v-86h-128v86q0 68-58 120zM554 256.667q80 0 168-36t88-92v-86h-512v86q0 56 88 92t168 36z" />
<glyph unicode="&#xf209;" glyph-name="person-group" d="M618 298.667q-44 0-75 31t-31 75 31 76 75 32 75-32 31-76-31-75-75-31zM299 340.667q-53 0-91 38t-38 91 38 90 91 37 90-37 37-90-37-91-90-38zM619 212.667q73 0 154-32t81-84v-96h-470v96q0 52 81 84t154 32zM298 256.667q44 0 102-12-102-56-102-148v-96h-298v106q0 46 55 82t122 52 121 16z" />
<glyph unicode="&#xf20a;" glyph-name="person-list" d="M768 810.667v-86h-682v86h682zM86-213.333v86h682v-86h-682zM768 640.667q36 0 61-25t25-61v-512q0-36-25-61t-61-25h-682q-36 0-61 25t-25 61v512q0 36 25 61t61 25h682zM426 522.667q-40 0-68-28t-28-68 28-68 68-28 68 28 28 68-28 68-68 28zM640 84.667v64q0 48-73 78t-140 30-140-30-73-78v-64h426z" />
<glyph unicode="&#xf20b;" glyph-name="person-import" horiz-adv-x="938" d="M854 596.667h84v-596h-84v596zM682 0.667v596h86v-596h-86zM554 596.667q18 0 31-12t13-30v-512q0-18-13-30t-31-12h-512q-16 0-29 12t-13 30v512q0 18 13 30t29 12h512zM298 480.667q-40 0-68-28t-28-68 28-68 68-28 68 28 28 68-28 68-68 28zM490 84.667v32q0 44-66 70t-126 26-126-26-66-70v-32h384z" />
<glyph unicode="&#xf20c;" glyph-name="person-team-outline" horiz-adv-x="938" d="M662 256.667q50 0 112-15t113-48 51-77v-116h-938v116q0 44 51 77t113 48 114 15q100 0 192-44 92 44 192 44zM490 64.667v52q0 20-70 48t-143 28-143-28-70-48v-52h426zM874 64.667v52q0 20-70 48t-142 28q-64 0-130-24 22-24 22-52v-52h320zM278 298.667q-62 0-106 44t-44 106 44 105 106 43 105-43 43-105-43-106-105-44zM277 532.667q-35 0-60-25t-25-60 25-60 60-25 60 25 25 60-25 60-60 25zM662 298.667q-62 0-106 44t-44 106 44 105 106 43 105-43 43-105-43-106-105-44zM661 532.667q-35 0-60-25t-25-60 25-60 60-25 60 25 25 60-25 60-60 25z" />
<glyph unicode="&#xf20d;" glyph-name="person-team-solid" horiz-adv-x="938" d="M640 340.667q-54 0-91 38t-37 91 37 90 91 37 91-37 37-90-37-91-91-38zM299 340.667q-53 0-91 38t-38 91 38 90 91 37 90-37 37-90-37-91-90-38zM299 256.667q55 0 121-16t122-52 56-82v-106h-598v106q0 46 55 82t122 52 122 16zM640 256.667q56 0 122-16t121-52 55-82v-106h-256v106q0 86-84 148 26 2 42 2z" />
<glyph unicode="&#xf20e;" glyph-name="person-face" d="M298 308.667q22 0 38-15t16-37-16-38-38-16-37 16-15 38 15 37 37 15zM554 308.667q22 0 38-15t16-37-16-38-38-16-37 16-15 38 15 37 37 15zM427 724.667q177 0 302-125t125-301-125-301-302-125-302 125-125 301 125 301 302 125zM427-43.333q141 0 241 100t100 242q0 48-14 96-48-10-96-10-106 0-198 48t-150 132q-66-160-222-230-2-20-2-36 0-142 100-242t241-100z" />
<glyph unicode="&#xf20f;" glyph-name="person-female" horiz-adv-x="384" d="M256-127.333h-128v256h-128l108 324q8 28 31 44t51 16h4q28 0 50-16t32-44l108-324h-128v-256zM192 554.667q-36 0-61 25t-25 60 25 60 61 25 61-25 25-60-25-60-61-25z" />
</font>
</defs>
</svg>
